<?xml version="1.0" encoding="utf-8"?>
<!-- Generator: Adobe Illustrator 17.0.0, SVG Export Plug-In . SVG Version: 6.00 Build 0)  -->
<!DOCTYPE svg PUBLIC "-//W3C//DTD SVG 1.1//EN" "http://www.w3.org/Graphics/SVG/1.1/DTD/svg11.dtd">
<svg version="1.1" id="Layer_1" xmlns="http://www.w3.org/2000/svg" xmlns:xlink="http://www.w3.org/1999/xlink" x="0px" y="0px"
	 width="960px" height="560px" viewBox="0 0 960 560" enable-background="new 0 0 960 560" xml:space="preserve">
<g>
	<g>
		<path fill="#E5CC61" d="M285.198,194.357c-21.253-35.767-73.654-61.154-112.87-39.741c-31.054,16.957-38.111,58.086-38.22,90.187
			c-0.111,32.585,7.306,65.976,22.177,95.033c7.002,13.682,17.361,29.192,33.075,33.459c20.007,5.432,37.682-13.901,48.295-28.05
			c5.284-7.044,9.546-14.767,14.757-21.85c5.118-6.957,10.673-13.778,14.266-21.693c2.254-4.965,3.547-12.051-0.599-16.477
			c-3.575-3.816-8.99-4.182-13.794-2.901c-12.87,3.432-15.964,18.888-6.524,27.874c11.627,11.068,22.877-13.039,23.708-21.587
			c0.327-3.365-5.275-4.108-5.893-0.798c-2.054,11.003,1.782,21.375,4.029,32.021c0.613,2.902,5.134,2.842,5.786,0
			c2.269-9.894-2.114-20.852-1.664-30.934c0.186-4.183,1.682-7.352,6.271-7.192c3.069,0.107,4.967,4.36,5.905,6.701
			c3.585,8.946,4.11,19.202,4.774,28.706c0.504,7.221-0.126,15.525,2.021,22.516c0.548,1.784,2.729,2.872,4.407,1.793
			c20.929-13.465,28.9-38.817,31.839-62.29c3.054-24.387,1.045-50.849-6.986-74.16c-0.882-2.561-3.96-2.866-5.483-0.717
			c-12.851,18.125-10.1,44.405-7.314,65.113c3.676,27.321,9.046,54.665,18.726,80.529c1.671-0.973,3.343-1.946,5.014-2.919
			c-14.358-16.104-26.964-36.281-31.114-57.697c-0.698,1.23-1.397,2.46-2.095,3.69c15.448-3.842,30.991-7.287,46.555-10.626
			c-1.23-1.23-2.46-2.46-3.69-3.69c-4.291,12.666-10.757,26.895-4.833,40.068c0.725,1.613,2.738,1.671,4.105,1.076
			c18.141-7.896,16.754-29.641,13.48-45.909c-1.671,0.973-3.343,1.946-5.014,2.919c9.329,9.76,12.5,23.831,16.087,36.434
			c0.697,2.451,4.202,3.022,5.483,0.717c10.949-19.7,26.313-36.621,35.132-57.531c0.93-2.204-1.708-4.218-3.69-3.69
			c-11.51,3.066-15.761,18.782-17.177,28.966c-1.376,9.891-1.431,26.621,10.015,30.955c6.065,2.296,12.541-0.514,17.716-3.677
			c7.781-4.756,14.171-11.409,19.662-18.612c12.436-16.313,19.405-36.866,22.509-56.957c3.333-21.577,2.393-45.531-8.272-65.07
			c-1.099-2.013-4.05-1.88-5.181,0c-10.717,17.819-6.512,42.027-2.769,61.267c4.569,23.487,10.45,48.14,22.55,68.962
			c1.943,3.343,7.117,0.33,5.181-3.028c-6.469-11.217-10.868-23.52-16.948-34.95c-5.504-10.346-12.705-21.075-24.061-25.45
			c0.239,1.828,0.478,3.656,0.717,5.483c23.848-10.155,50.598-9.689,74.798-18.751c3.589-1.344,2.036-7.145-1.595-5.786
			c-24.709,9.252-51.852,8.975-76.232,19.356c-2.672,1.138-1.372,4.679,0.717,5.483c10.922,4.208,17.269,16.356,22.287,26.167
			c5.299,10.359,9.317,21.386,15.137,31.476c1.727-1.009,3.454-2.019,5.181-3.028c-11.43-19.669-16.759-42.672-21.388-64.774
			c-3.811-18.199-8.609-42.414,1.607-59.399c-1.727,0-3.454,0-5.181,0c9.456,17.324,10.341,38.259,8.075,57.465
			c-2.452,20.777-9.803,41.642-22.312,58.505c-5.028,6.779-25.749,29.763-34.039,16.047c-6.138-10.155-2.485-27.027,2.57-36.846
			c1.713-3.327,4.216-7.004,8.03-8.02c-1.23-1.23-2.46-2.46-3.69-3.69c-8.59,20.366-23.858,36.9-34.527,56.098
			c1.828,0.239,3.656,0.478,5.483,0.717c-3.889-13.667-7.525-28.511-17.63-39.082c-2.199-2.301-5.578,0.116-5.014,2.919
			c2.766,13.743,4.728,32.408-10.723,39.133c1.368,0.359,2.736,0.717,4.105,1.076c-5.01-11.14,1.843-24.833,5.438-35.444
			c0.778-2.297-1.597-4.139-3.69-3.69c-15.564,3.339-31.107,6.784-46.555,10.626c-1.676,0.417-2.4,2.118-2.095,3.69
			c4.346,22.428,17.633,43.493,32.657,60.345c1.944,2.18,6.069-0.099,5.014-2.919c-9.057-24.198-14.083-49.476-17.941-74.958
			c-3.119-20.606-6.961-47.888,5.923-66.06c-1.828-0.239-3.655-0.478-5.483-0.717c7.523,21.837,9.301,45.902,7.181,68.797
			c-2.067,22.325-9.339,48.049-29.277,60.877c1.469,0.598,2.938,1.195,4.407,1.793c-0.944-3.073-0.913-6.506-1.116-9.685
			c-0.36-5.644-0.649-11.291-1.13-16.928c-0.85-9.949-1.572-22.357-7.732-30.699c-4.906-6.644-16.148-6.918-19.482,1.54
			c-2.256,5.723-1.349,12.465-0.686,18.407c0.61,5.461,2.521,12.103,1.268,17.567c1.929,0,3.857,0,5.786,0
			c-1.989-9.424-5.85-19.079-4.029-28.831c-1.964-0.266-3.929-0.532-5.893-0.798c-0.44,4.532-7.564,22.961-14.178,16.665
			c-6.66-6.34-2.428-15.296,5.32-17.362c9.343-2.491,8.773,6.986,5.913,12.82c-4.306,8.783-11.159,15.966-16.444,24.117
			c-7.043,10.863-13.916,21.679-23.29,30.736c-7.029,6.791-16.292,13.068-26.463,12.496c-16.473-0.927-27.405-20.395-33.861-33.249
			c-14.826-29.52-21.259-63.733-20.245-96.608c1.033-33.499,11.896-74.496,48.825-83.701c34.094-8.498,73.702,13.794,90.972,42.859
			C281.991,200.708,287.179,197.692,285.198,194.357L285.198,194.357z"/>
	</g>
</g>
</svg>
