<?xml version="1.0" encoding="utf-8"?>
<!-- Generator: Adobe Illustrator 17.0.0, SVG Export Plug-In . SVG Version: 6.00 Build 0)  -->
<!DOCTYPE svg PUBLIC "-//W3C//DTD SVG 1.1//EN" "http://www.w3.org/Graphics/SVG/1.1/DTD/svg11.dtd">
<svg version="1.1" id="Layer_1" xmlns="http://www.w3.org/2000/svg" xmlns:xlink="http://www.w3.org/1999/xlink" x="0px" y="0px"
	 width="500.01px" height="579.586px" viewBox="-96.5 -111.858 500.01 579.586"
	 enable-background="new -96.5 -111.858 500.01 579.586" xml:space="preserve">
<g>
	<path fill="#010101" d="M-18.043,141.507c-16.92,7.959-61.703,43.788-70.328,54.403c-8.958,10.615-11.611-5.971-2.322-33.504
		c7.296-22.226,25.876-52.415,57.058-78.289c18.244-14.928,58.385-36.49,82.932-49.097c4.977-2.655,69.333-29.856,126.723-43.457
		c4.977-1.327-5.971,8.293-7.63,13.601C159.764,30.375-12.406,138.52-12.406,138.52L-18.043,141.507z"/>
	<path fill="#010101" d="M224.452,445.704c2.985,17.913,0.332,19.241-18.244,21.563c-18.578,2.322-32.179-4.645-37.154-9.288
		c-4.977-4.646-5.971-14.928-0.995-24.216c2.987-5.972,5.972-7.962,7.632-15.26c1.658-6.966,2.985-8.625,4.311-11.278
		c1.326-2.324,1.66-4.647,1.99-20.9c0.332-16.254,0-46.775,1.66-59.711c1.66-13.269,59.05,5.971,59.05,5.971
		s-13.602,33.837-17.251,42.13c-3.65,8.295-3.318,24.216-3.318,27.534s-1.326,9.951-2.322,10.283
		c-0.995,0.331,3.318,8.956,1.326,13.933C219.809,431.108,224.121,443.051,224.452,445.704z"/>
	<path fill="#010101" d="M246.347-61.515c-1.992-12.606,0-37.488,2.653-41.467c8.295-11.28,52.082-12.606,61.372,0.663
		c3.98,5.971,3.648,19.904,2.985,28.861c-0.663,8.956-2.985,28.197-3.318,34.501c-0.331,4.645-48.433,11.941-59.048-0.664
		C248.005-42.937,246.347-61.515,246.347-61.515z"/>
	<path fill="#010101" d="M343.877,413.526c20.236,14.598,35.827,17.251,46.11,22.558c10.283,5.309,7.63,15.593-9.62,18.578
		c-13.933,2.653-35.827-2.655-50.423-2.655s-47.107,1.66-55.732-4.311c-9.951-6.966-5.64-19.905-5.64-19.905
		c2.655-7.296,9.288-23.553,7.298-36.822c-1.99-13.269-4.645-20.566-9.62-32.842c-4.975-12.273-8.624-42.46-3.979-44.12
		c4.645-1.66,3.316,0,9.288,1.326c5.971,1.326,12.606,3.318,25.544,3.318s27.202-1.992,32.179-2.985
		c4.975-0.995,8.956-1.992,7.296,8.293c-1.658,10.283-6.633,29.524-6.966,44.452c-0.331,14.928-0.331,32.179,0.664,35.164
		C331.27,406.56,338.569,409.878,343.877,413.526z"/>
	<g>
		<g>
			<path fill="#8AC640" d="M272.886-28.341C236.396,3.175,165.736,11.798,60.91,52.27C34.039,62.553-37.614,93.405-54.865,125.584
				c58.053-33.504,79.616,12.606,84.259,60.043c4.311,44.452,26.539,67.675,83.597,66.346c58.717-1.326,76.631,32.842,92.885,72.983
				C237.39,171.361,287.814,141.507,320.322,115.3C389.324,59.236,304.4-39.621,272.886-28.341z"/>
			<path fill="#8AC640" d="M272.886-28.341C185.309,2.178,98.726,9.808-3.115,72.506c-24.216,14.928-75.303,48.763-85.256,113.453
				C-51.219,144.823,34.7,93.074,139.86,60.233c53.077-16.588,91.891-27.534,138.996-45.779
				C275.541-6.779,275.541-15.072,272.886-28.341z"/>
		</g>
		<path fill="#010101" d="M384.679,153.448c0,0-6.303,21.563-18.909,28.531c0,0-9.288,3.318-27.864-6.966
			c-5.308-2.985-9.288-13.269-8.958-16.588c0.332-7.962,5.308-11.611,5.308-11.611s5.309-8.958,11.611-8.625
			c6.304,0.331,16.92,1.326,20.237-1.66C369.088,133.212,385.344,142.5,384.679,153.448z"/>
		<path fill="#010101" d="M249.333-55.212c0,0-1.326,16.92-3.648,27.534c-0.332,1.992-10.283,2.985-17.583,5.972
			c13.933,39.807,97.862,39.475,108.81,19.904c-5.308-3.648-15.923-9.288-20.899-11.278c-4.977-1.992-4.645-1.66-4.977-10.948
			c-0.331-9.29-0.995-26.539-1.66-31.184C308.713-59.857,257.293-59.857,249.333-55.212z"/>
		<path fill="#F0EFEF" d="M252.65-55.212c0,0,0,9.62-0.995,18.909c-0.331,4.313-0.663,6.966-1.326,10.283
			c-0.332,1.992,11.278,9.951,14.596,27.534c15.923,35.495,52.747,17.913,68.006,0.995c-5.308-3.65-13.933-8.625-23.884-12.606
			c-4.977-1.992-2.655-6.303-2.985-15.591c-0.332-9.288-1.66-22.891-2.322-27.866C303.073-58.53,260.613-59.857,252.65-55.212z"/>
		<path fill="#010101" d="M249.333-55.212c0,0-0.332,5.972-1.326,12.938c4.311,4.311,9.951,10.283,14.265,13.933
			c2.985,2.655,10.282,2.322,16.918,2.322c5.971,0,11.278,0.663,13.601-0.663c5.309-2.655,12.938-9.288,17.251-14.265
			c-0.331-5.971-0.663-11.611-0.993-14.265C308.713-59.857,257.293-59.857,249.333-55.212z"/>
		<path fill="#010101" d="M279.521-30.001c-3.982,0-8.627-0.331-12.275-0.995c-1.66-0.331-3.318-1.326-4.645-1.99
			c-2.322-1.66-4.645-3.648-7.296-5.64c-5.309-3.98-5.64-6.303-5.64-7.296c2.322-20.9-0.664-38.482-0.664-38.482
			s-2.322-8.958,10.283-11.28c12.606-2.322,20.236-2.653,20.236-2.653s7.962,0,20.236,2.653c12.606,2.322,10.283,11.28,10.283,11.28
			s-2.985,17.581-0.663,38.482c0,0.993-0.331,3.316-5.64,7.296c-4.645,3.318-8.293,6.966-11.941,7.63
			C288.145-30.331,283.5-30.001,279.521-30.001z"/>
		<path fill="#010101" d="M279.521-106.962c-21.894,0-26.208,5.971-32.511,12.606c-1.326,1.658-0.332,11.611,1.992,32.842h2.985
			c0,0-1.992-5.972-1.66-12.938c0.332-6.966,1.66-6.633,0.663-8.293c-1.326-1.992-3.98-5.309,1.992-8.625
			c5.971-3.318,15.259,2.653,26.539,2.985c11.278-0.332,20.899-6.303,26.869-2.985c5.971,3.316,3.318,6.633,1.992,8.625
			c-1.327,1.99,0.331,1.326,0.663,8.293c0.331,6.966-1.66,12.938-1.66,12.938h2.985c1.99-21.231,3.318-30.519,2.322-32.179
			C307.053-100.991,301.415-106.631,279.521-106.962z"/>
		<path fill="#010101" d="M384.679,154.443c0,0-6.303,20.236-18.576,27.202c-2.655-1.326-2.322-3.316-4.645-6.303
			c-0.664-0.993-2.987-1.66-3.98-2.653c-0.995-0.995-0.663-2.655-2.322-3.98c-1.327-1.327-2.322-0.332-3.65-1.327
			c-1.326-1.326-1.66-2.985-2.653-3.979c-0.664-0.665-3.318-0.995-3.98-1.66c-1.66-1.66-16.254-4.645-15.591-7.962
			c1.326-4.977,3.98-8.625,3.98-8.625s6.303-9.288,12.604-8.958c6.303,0.332,12.275,1.66,15.593-1.326
			C365.108,131.552,385.676,143.828,384.679,154.443z"/>
		<path fill="#010101" d="M341.554,7.818c0,0,20.899-4.977,35.164,8.625c14.265,13.933,13.269,31.182,8.958,41.797
			c3.648,4.313,10.283,16.254,5.308,30.519c21.894,18.576,12.273,47.107-7.298,66.015c0,0-4.645-17.251-23.221-18.246
			c0.663-6.633-17.251-11.943-8.958-29.193c-12.606-2.985-12.273-11.611-14.264-22.224C335.584,74.495,341.554,7.818,341.554,7.818z
			"/>
		<path fill="#F0EFEF" d="M333.924,17.106c0,0,24.216-12.273,38.482,1.66c14.264,13.933,10.282,29.192,5.971,39.807
			c3.648,4.311,12.273,16.588,6.966,31.182c-0.995,3.318-8.293,3.318-13.602,11.943c13.269-7.632,21.563-5.64,24.549,3.979
			c4.645,14.928-5.64,32.842-14.596,42.794c0-0.332-0.332-0.664-0.332-0.995c-1.326,4.977-2.985,14.596-12.936,25.211
			c-4.977,5.308-8.958,4.645-14.598,3.318c-6.633-1.66-8.956-4.647-18.244-9.62c-5.308-2.985-2.322-6.635-2.322-9.62
			c0-0.663,0.663-1.66,1.66-2.985c0.663-1.66,2.653-4.311,5.638-7.298c0,0,4.313-5.971,10.617-5.64
			c6.303,0.332,12.936-0.993,14.596-2.653l0,0c0-11.611-13.269-11.943-8.625-31.846c0.332-0.995,1.992-2.655,7.298-3.318
			c-7.962-1.66-11.611-1.992-17.251-7.298c-3.98-3.648-6.966-8.293-7.962-14.264C337.242,71.179,333.924,17.106,333.924,17.106z"/>
		<path fill="#010101" d="M263.928-3.793c-1.99-2.655-12.273-15.923-31.846-21.231c-5.64-1.66-9.288,2.985-14.926,6.303
			c-1.66-0.995-8.958-4.313-12.938-1.992c-3.98,2.321-6.633,4.645-10.615,6.303c-1.992-0.995-7.298-0.995-11.611,0.663
			c-4.313,1.327-10.948,4.313-17.251,12.938c-3.98,14.265,70.326,3.648,70.326,3.648L263.928-3.793z"/>
		<path fill="#8AC640" d="M264.593-3.793c-10.617-3.65-8.958-15.923-32.511-17.913c-4.645-0.332-7.63,3.316-10.948,5.638
			c1.66,1.66,3.318,4.313,4.313,6.966c-2.985-3.316-8.293-7.63-13.602-8.625c-4.975-0.993-8.293,2.655-13.601,5.309
			c0.993,0.993,1.99,2.653,3.316,4.645c-4.645-2.985-7.961-3.98-14.264-1.66c-4.313,1.326-12.606,4.976-18.909,13.933
			c-3.98,14.265,67.01-1.66,67.01-1.66L264.593-3.793z"/>
		<path fill="#010101" d="M326.958,1.515c0,0,0-3.65-0.332-6.966c0-0.663-2.653-2.322-2.653-2.985L323.31-9.1
			c0,0,5.308-2.985,9.288-1.326c4.311,1.326,6.633,6.966,6.633,6.966c7.63-2.653,8.293,0.332,11.943,4.313
			c7.962-1.66,8.956,1.326,13.933,8.625c0,0-5.971-0.995-17.581,0.993C336.247,12.129,326.958,1.183,326.958,1.515z"/>
		<path fill="#8AC640" d="M325.631-0.144c0,0,1.99-1.66,1.326-1.992c3.648-1.99,8.625-4.311,10.948,1.992
			c7.63-2.655,8.625,0.995,12.273,4.977c9.288-4.313,9.951,0.993,10.615,3.316c-2.985,0-7.296,0.332-13.269,0.995
			C336.247,10.803,325.299-0.477,325.631-0.144z"/>
		<path fill="#010101" d="M212.843-8.437c0,0,18.909,6.633,34.832,5.638c15.923-1.326,43.125-2.653,57.721,5.972
			c0,0,14.928-5.309,28.861-1.66c13.935,3.648,39.477,27.534,31.848,52.745c-0.664,1.66-4.977,4.313-9.953,5.972
			c0,0,2.655,11.278-1.99,20.566c-4.645,8.958-14.928,26.208-15.26,50.092l0,0c-0.331,3.98-0.993,12.273-1.658,16.254
			c-25.876-0.993-65.683-10.615-104.827-9.951c0.331-4.311,0.663-6.966,0.995-11.278h0.993c-1.99-10.948-2.653-16.588-4.645-24.881
			c-12.606-7.961-25.876-17.249-37.153-34.832C181.659,48.619,212.843-8.437,212.843-8.437z"/>
		<path fill="#010101" d="M340.892,170.699c0,0,20.568,73.646-3.648,104.497c0,0,3.648,14.264-4.645,29.524
			c-1.327,6.633-2.987,12.606-3.98,19.239c-4.313,27.534-11.612,39.144-13.602,83.264l-19.905-0.331c0,0-2.322-31.846-9.288-48.765
			c-3.979-9.619-19.573-22.558-18.907-35.495c0.663-9.953,2.653-18.246,19.573-31.516c1.326-19.239-17.915-37.486-14.928-109.14
			L340.892,170.699z"/>
		<path fill="#F0EFEF" d="M334.921,167.712c5.308,33.837,17.581,83.929-4.645,108.476c0.993,4.645,1.658,11.28,0.331,18.909
			c-0.663,3.98-1.99,8.293-3.648,12.936c-3.318,7.962-4.645,19.573-5.64,26.539c-4.313,27.534-4.313,28.863-6.303,72.983
			l-19.905-0.332c0,0-2.322-31.846-9.288-48.763c-3.979-9.62-12.273-17.913-12.936-30.851c-0.663-9.951,6.303-29.855,22.891-29.192
			c-0.995-40.139-19.573-32.179-24.548-115.775L334.921,167.712z"/>
		<path fill="#F0EFEF" d="M212.843-8.437c0,0,7.298,2.322,15.259,2.985c7.962,0.663,16.588,0,24.216-0.332
			c15.923-1.326,38.482-2.985,53.41,5.64c0,0,8.293-2.655,17.251-1.992c3.98,0.332,7.962,3.65,12.606,4.977
			c14.596,3.648,28.529,27.864,22.224,49.76c-0.663,1.66-5.308,0-10.615,1.66c0.993,4.645,1.66,15.26-3.65,26.539
			c-5.638,11.28-12.936,25.876-11.611,53.742c-34.832-1.66-50.423-3.98-84.924-5.64c-2.985-12.275-4.977-24.549-5.308-30.851
			c4.645-2.322,7.296-4.311,10.948-8.293c-9.951,1.66-13.933,0.995-19.905-2.322c-5.971-3.318-16.586-13.933-21.894-20.899
			c-0.663-0.664-4.311,10.282-12.604,10.615c-2.987-4.313,9.619-16.588,7.296-21.231C197.25,39,212.843-8.437,212.843-8.437z"/>
		<path fill="#010101" d="M337.572,140.178c0,0,0.663,11.943,0.663,14.928c0,3.318,2.655,13.269,2.985,17.913
			c-3.648,6.303-19.571,20.568-48.433,25.876c-28.529,5.971-66.346-38.812-66.346-38.812c0.995-4.313,4.313-16.92,6.635-23.553
			c0.332-0.663,0.995-2.322,0.995-2.985C237.059,129.232,337.572,140.178,337.572,140.178z"/>
		<path fill="#F0EFEF" d="M330.276,141.174c0,8.293,1.326,14.265,2.322,19.573c1.658,9.62,4.311,15.923,4.311,22.226
			c0,19.239-25.211,15.922-46.444,16.586c-28.529,5.972-52.745-38.812-52.745-38.812c1.99-7.63,3.318-16.254,6.303-23.553l0,0
			c0.331-3.98,0.995-8.956,1.326-11.278c40.472,0,69.001,2.322,85.588,3.979C331.602,133.544,330.939,139.847,330.276,141.174
			L330.276,141.174z"/>
		<path fill="#010101" d="M298.428,183.967c0,0-17.581-39.144-70.328-27.532c-12.604,35.495-29.524,76.299-18.576,120.419
			c-10.948,14.928-23.553,23.223-23.553,50.755c0,27.534,1.327,32.179,1.327,32.179l38.812,1.992c0,0,12.606-16.254,17.581-33.837
			c1.327-4.977,2.655-13.933,1.66-24.216c1.326-1.99,6.966-6.633,7.63-15.591c0,0,18.909-9.951,29.856-34.167
			C293.122,232.069,290.467,213.16,298.428,183.967z"/>
		<path fill="#F0EFEF" d="M298.428,183.967c-0.993-3.648-14.264-39.475-63.361-28.861c-28.86,76.963-18.244,108.81-13.933,122.741
			c-19.573,24.879-28.529,30.187-24.547,80.611h25.876c11.941-18.909,14.596-25.876,15.259-50.755c0-0.995-3.648,1.99-6.303,5.308
			c1.992-10.283,7.63-12.273,11.943-18.576c1.99-2.655,3.648-6.635,3.648-11.943c23.221-15.591,31.846-35.164,36.822-55.4
			C287.814,213.16,292.457,190.27,298.428,183.967z"/>
		<path fill="#010101" d="M216.491,130.559c0,0,8.958,0.331,16.92,2.985c7.63,2.653,7.63,4.311,10.615,7.63
			c2.985,3.319,10.283,8.293,8.958,13.269c-0.664,2.655-2.322,3.318-4.645,5.64c-0.995,0.995-8.295,8.956-9.953,9.951
			c-0.995,0.663-2.322,1.66-3.318,2.322c-0.993,0.663-3.979,2.655-4.975,3.318c-3.318,1.66-5.64,2.655-9.288,2.322
			c0,0-8.293-0.332-13.602-5.971c0,0-0.663-2.655,0.664-3.98c0,0-6.967-5.972-8.958-9.953c-1.992-3.979-1.992-9.619-0.663-12.604
			C198.91,142.5,211.846,134.207,216.491,130.559z"/>
		<path fill="#010101" d="M224.786,453.335l-0.995,8.295c0,0-2.985,3.648-25.211,3.318c-22.558-0.332-28.529-7.298-30.519-10.948
			l-1.326-8.625c0,0,4.313-6.303,5.308-6.303c7.298,0.663,32.179,10.616,49.429,13.269
			C223.126,452.339,223.457,453.002,224.786,453.335z"/>
		<path fill="#010101" d="M272.886,436.416c0,3.648-0.332,3.648-0.332,7.298c3.98,2.985,13.935,4.645,32.842,4.311
			c27.534-0.663,53.077,8.295,84.259,2.985l0.332-5.971l-2.985-0.331l-110.467-8.958L272.886,436.416z"/>
		<path fill="#010101" d="M297.102,448.027c2.655,0,5.308,0,8.293,0c17.915-0.663,34.833,3.318,53.077,4.313
			c9.62-0.332,21.563-2.655,20.568-9.62l-94.212-7.962C279.189,441.06,283.5,446.367,297.102,448.027z"/>
		<path fill="#010101" d="M188.957,308.368c2.985,1.99,23.221,13.933,56.063,12.273c-0.664,6.303-0.332,18.578-14.928,40.139
			c-7.298,10.615-13.602,29.193-14.928,52.747c0.332,5.308,3.318,9.951-0.663,16.918c1.326,4.311,6.633,12.936,9.288,18.244
			c2.653,5.309,3.98,11.28-13.602,11.612c-17.913,0.331-46.775-1.66-42.793-15.591c1.992-7.298,7.63-14.928,8.295-17.915
			c0.663-2.985,0.663-11.941,6.301-17.913c4.977-16.586,3.318-32.509,2.324-47.437C182.654,345.852,182.322,320.973,188.957,308.368
			z"/>
		<path fill="#010101" d="M219.809,38.005c23.553-31.516,3.648-56.726-34.167-49.097c-15.26,2.985-30.519,13.602-31.516,32.842
			c-4.975,0.663-16.254,1.326-21.894,21.894c-4.311,15.923-6.633,18.909-14.265,26.869c-4.975,5.64,0.332,17.251,3.98,25.545
			c12.275,28.529,50.092,31.182,75.636,52.745c8.625-2.322,17.581-11.941,20.236-18.244c-21.563-25.545-16.92-35.496-25.545-48.765
			C201.563,78.475,222.794,65.539,219.809,38.005z"/>
		<path fill="#F0EFEF" d="M215.164,36.015c1.326-1.992,3.648-6.303,4.645-7.962c0.332-0.332,3.98,5.971,4.313,5.64
			c8.956-14.598,11.278-35.828,0.993-37.819c-2.322-0.332-6.633-1.326-10.283-2.655c-6.633-2.322-12.604-2.322-23.221-0.331
			c-14.596,2.653-29.192,13.269-29.192,28.529c0,0.995,10.282,3.98,13.269,16.255c-4.977-6.967-13.602-14.598-23.886-7.962
			c-10.948,6.966-5.308,22.889-19.904,39.475c-4.977,5.64-4.313,12.275,0.993,25.544c8.625,20.9,49.429,32.179,71.655,52.082
			c5.308-2.322,8.956-7.63,11.611-11.611c-14.928-15.591-20.9-30.188-25.211-40.804c-5.308-12.273-11.28-19.239-22.891-28.531
			c5.972,2.322,10.617,4.645,13.269,6.635c2.985,1.99,7.298,2.322,11.28,0.995C206.871,68.524,214.501,48.619,215.164,36.015z"/>
		<path fill="#010101" d="M359.468,41.322c-0.995,12.606-10.283,6.303-15.259,3.98c-9.953-4.313-19.905-7.298-31.516-7.298
			S286.155,39,273.218,42.318c-17.913,4.976-23.223,4.645-31.184,0.663c-7.961-4.313-21.892-14.928-21.892-14.928
			s-0.332,3.318,2.985,7.63c4.311,5.308,13.933,11.943,26.869,16.254c6.303,1.992,11.28,0.663,16.92-0.663
			c29.524-7.298,60.706-8.625,86.912,7.298c1.327,0.663,5.972-1.327,7.962-4.313C364.443,49.948,359.468,41.322,359.468,41.322z"/>
		<path fill="#0A1825" d="M208.53,167.712c2.653,1.66,5.971,2.655,9.619,5.64c0,0-2.985,0-4.311-1.326
			C212.178,171.031,208.861,168.045,208.53,167.712L208.53,167.712z"/>
		<path fill="#F0EFEF" d="M304.4-95.351c-0.995-2.985-8.295-8.295-25.211-8.295c-18.246,0-23.553,5.64-23.884,8.625
			c0,0.995-1.327,11.612-1.66,15.923c0,0,0,5.308,0.331,13.269c0.332,5.308,1.66,8.293,2.322,15.26
			c0.663,7.296,2.655,11.941,6.303,17.913c1.66,0.993,2.985,1.99,4.645,2.322c6.635,1.326,18.246,1.658,24.549,0
			c3.648-0.995,8.293-7.298,9.288-12.938c1.326-6.966,2.653-11.943,2.985-16.254c0.663-4.311,0.995-13.933,1.326-16.588
			C306.39-83.409,304.731-94.689,304.4-95.351z"/>
		<path fill="#010101" d="M269.568,314.67c0,0,17.583,7.63,61.04,0.995c0,0-12.273,61.703-6.633,92.552
			c0,0,5.638,7.962,47.437,23.221c0,0,18.576,4.645,17.913,13.935c0,0,0.663,1.99-21.894,1.326
			c-22.557-0.664-43.789-4.645-58.717-4.645c-14.928,0-30.851,0.663-33.504-3.648c-2.985-3.98,0.663-14.265,4.975-20.237
			c4.647-6.301,3.318-10.948,2.987-22.224C282.174,366.421,259.616,335.901,269.568,314.67z"/>
		<path fill="#8AC640" d="M265.919,320.31c-2.322,3.318,0.331,15.922,3.648,28.197c3.318,12.273,10.617,19.573,12.275,39.807
			c1.658,19.904,1.99,22.558-3.65,34.167c-5.64,11.609-7.298,22.226,12.273,22.558c19.571,0.332,30.189-0.332,50.092,2.655
			c19.905,2.985,26.871,3.98,37.819,2.322c10.948-1.658,13.269-5.309,8.625-8.625c-4.645-3.318-23.886-6.966-32.179-13.602
			c-7.962-5.971-30.519-15.923-30.85-18.576c-0.995-8.958-1.327-41.467,0.331-52.082c1.66-10.617,3.98-25.876,4.645-29.856
			s3.98-7.962-1.66-6.635c-5.638,1.326-26.869,4.313-42.793,3.318C268.573,322.963,266.915,319.314,265.919,320.31z"/>
		<path opacity="0.3" fill="#010101" enable-background="new    " d="M277.199,422.815c5.638,2.653,13.933,4.645,20.236,4.645
			c0,0-2.324,10.948,1.326,17.581c3.648,6.635-26.539,2.655-26.539,2.655l-1.326-23.553L277.199,422.815z"/>
		<path opacity="0.3" fill="#010101" enable-background="new    " d="M365.108,451.344c5.308-1.66,8.958-7.63,4.645-13.269
			c-4.645-5.64-8.625-6.635-2.655-6.966c5.972-0.332,27.866,12.936,27.866,12.936l-11.28,10.283L365.108,451.344z"/>
		<path opacity="0.3" fill="#010101" enable-background="new    " d="M264.924,333.247c7.63,2.655,19.241,3.318,29.193,2.985
			c9.951-0.331,24.879-1.66,34.501-4.975c9.619-3.318,5.638,3.648,5.638,3.648l-5.308,4.977c0,0-12.606,4.975-33.172,4.645
			c-24.216-0.332-31.516-2.985-31.516-2.985L264.924,333.247z"/>
		<path opacity="0.3" fill="#010101" enable-background="new    " d="M265.586,349.834c7.632,2.655,19.241,3.318,29.193,2.985
			c9.951-0.331,23.221-0.331,32.842-3.98c3.98-1.326,1.66,4.313,1.66,4.313l-1.66,2.985c0,0-12.938,4.645-33.174,4.311
			c-24.216-0.331-28.529-2.322-28.529-2.322L265.586,349.834z"/>
		<path fill="#010101" fill-opacity="0" d="M269.568,314.67c0,0,28.861,10.283,61.372,3.318c0,0-12.606,59.38-6.966,89.899
			c0,0,5.638,7.961,47.437,23.221c0,0,18.576,4.645,17.913,13.933c0,0,0.663,1.992-21.894,1.326
			c-22.558-0.663-43.789-4.645-58.717-4.645c-14.928,0-30.851,0.664-33.504-3.648c-2.985-3.98,0.663-14.265,4.975-20.236
			c4.647-6.303,3.318-10.948,2.987-22.226C282.174,366.421,259.616,335.901,269.568,314.67z"/>
		<path fill="#010101" fill-opacity="0" d="M269.568,314.67c0,0,28.861,9.951,61.372,2.985c0,0-12.606,59.713-6.966,90.232
			c0,0,5.638,7.961,47.437,23.221c0,0,18.576,4.645,17.913,13.933c0,0,0.663,1.992-21.894,1.326
			c-22.558-0.663-44.122-6.966-58.717-4.645c-15.591,2.655-30.851,1.66-33.504-3.648c-2.322-4.311,0.663-14.265,4.975-20.236
			c4.647-6.303,3.318-10.948,2.987-22.226C282.174,366.421,259.616,335.901,269.568,314.67z"/>
		<path fill="#010101" d="M243.693,117.29c0,2.322,25.876,15.259,40.139,17.913c14.265,2.653,44.121,0,48.765-0.995l-0.664,4.645
			c0,0-35.495,5.308-62.696-1.99c-27.203-7.298-24.216-8.958-24.216-8.958L243.693,117.29z"/>
		<g>
			<path fill="#F0EFEF" d="M188.293,400.257c3.98,1.992,18.246,5.64,27.534,3.65c1.326-0.332,0-22.891,3.65-33.174
				c5.308-14.265,13.933-25.876,17.912-51.086c-13.933-1.327-29.855-4.977-38.149-7.632
				C188.625,344.527,192.275,372.391,188.293,400.257z"/>
			<path fill="#F0EFEF" d="M210.52,421.158c2.322,0.663,3.98,3.316,4.645,1.66c1.326-2.987-2.322-8.625-2.655-12.606
				c0-0.332,0,0,0-0.332c-2.985-2.653-23.221-2.985-21.894-1.66c-2.322,4.313-5.971,3.65-7.296,12.275
				c-0.663,4.311,4.645,0.663,9.619,0.331c-8.956,5.971-19.239,13.602-20.899,20.236c-1.99,9.288,1.327,11.943,11.28,16.92
				c8.625,1.99,18.909,2.322,26.869,1.99c8.958-1.66,10.617-5.971,7.962-11.943C214.169,439.071,211.516,427.46,210.52,421.158z"/>
		</g>
		<path fill="#010101" d="M214.169-9.765c10.948,6.303,26.208,4.645,31.846,4.313c1.327,0,14.598-2.322,15.26-1.992
			c1.326,0.332,1.326,1.327,1.326,1.327s-4.975,2.653-16.254,3.316c-10.615,0.663-23.221,0-30.187-3.316
			C207.866-9.765,214.169-9.765,214.169-9.765z"/>
		<path fill="#010101" d="M326.958-3.462c1.99,1.326,14.928,6.303,20.568,12.273c4.975,5.309,2.322,4.977,1.326,3.65
			c-1.326-1.66-11.611-8.625-15.591-10.283c-3.98-1.658-8.958-4.645-8.958-5.308S326.958-3.462,326.958-3.462z"/>
		<path fill="#F0EFEF" d="M212.509,134.207c9.62-0.663,19.573,1.66,25.876,8.293c3.318,3.318,8.625,6.966,7.962,10.283
			c0,0.995-1.992,3.65-3.648,5.64c-0.995,1.326-3.98,4.311-4.977,5.308c-1.326,0.995-5.971,4.645-6.966,5.308
			c-0.995,0.664-2.322,2.324-3.318,2.655c-3.316,1.66-6.966,0.332-10.283-1.326c-3.316-1.66,0.664-1.992-2.985-4.645
			c-8.956-6.303-13.933-10.617-10.283-22.891C204.218,140.51,207.866,137.855,212.509,134.207z"/>
	</g>
	<path opacity="0.4" fill="#010101" enable-background="new    " d="M127.919,58.241C98.063,70.184,22.095,108.002,0.533,119.613
		l0,0c17.913,11.278,26.206,38.48,28.861,66.014c0.331,2.655,0.663,4.977,0.995,7.63c0.331,2.322,0.663,3.98,0.993,4.977
		c0,0.332,0,0.995,0.332,1.326c19.573-53.408,89.567-109.803,92.222-114.116c1.326-1.99-1.66-10.615,2.985-18.907
		C132.895,55.918,144.507,51.273,127.919,58.241z"/>
	<path opacity="0.4" fill="#010101" enable-background="new    " d="M198.91,308.7c15.259-30.519,15.591-59.713,15.259-93.881
		c0-14.265,10.283-34.501,4.977-28.861c-19.905,22.224-69.996,64.025-106.155,66.346C163.746,250.645,183.649,276.189,198.91,308.7z
		"/>
	<path fill="#010101" d="M-28.66,147.808c18.909-13.601,116.77-65.681,140.324-72.981c23.552-7.63,16.254-16.588,16.254-16.588
		S32.378,99.374-24.68,134.87"/>
	<path opacity="0.4" fill="#010101" enable-background="new    " d="M249.995,51.938c-7.63-2.985-13.601,5.972-11.611,14.598
		c1.992,8.625,19.905,18.244,18.909,49.76c-0.663,25.876-6.303,36.49-6.303,36.49l-12.606-15.922c0,0-1.99-35.828-6.303-41.136
		c-4.311-5.308-17.913-14.928-23.221-19.904c-5.308-4.977,5.971-11.611,5.308-20.9c-0.663-8.956,5.64-26.869,5.64-26.869
		L249.995,51.938z"/>
	<path opacity="0.4" fill="#010101" enable-background="new    " d="M296.107,193.255c-0.663,24.879,4.977,61.703,7.298,79.286
		c2.322,17.581,5.308,18.909,0,26.871c-5.308,7.63-12.273,20.236-12.273,20.236l-22.891-1.992c0,0,18.246-23.221,19.239-27.534
		c0.995-4.311-9.288-37.153-9.288-37.153L296.107,193.255z"/>
	<path opacity="0.4" fill="#010101" enable-background="new    " d="M251.987-38.957c4.645,10.282,10.283,14.927,19.239,17.913
		c5.308,1.99,26.206,4.645,34.501-4.645c3.648-4.313,1.326-15.923,1.326-15.923l-18.909,15.259l-25.544-4.643l-2.985-7.63
		L251.987-38.957z"/>
	<path fill="#8AC640" stroke="#010101" stroke-width="1.586" stroke-linejoin="round" stroke-miterlimit="10" d="M253.976-16.068
		c8.625,5.64,30.188,10.948,36.159,11.943c5.971,1.326,15.591-6.303,20.236-8.293c4.977-2.322,13.602-3.65,23.553,5.308
		c0.995,0.995-2.322,5.308-2.322,5.308c-0.332-0.332-2.322-0.332-4.977-1.66c-2.653-1.326-4.975-2.322-8.956-1.99
		c-16.588,1.99-19.241,7.63-33.837,4.311c-14.596-3.319-18.246-5.971-32.509-5.308"/>
	<path fill="#8AC640" d="M250.991-15.072c10.948,4.645,32.179,9.62,38.149,10.948c5.971,1.327,15.591-4.645,20.236-7.63
		c8.295-5.308,18.909-0.995,23.886,4.645c3.316,3.648,4.645,5.971,4.645,6.966c0,1.326-3.98,0-3.98,0
		c-2.322-0.995-4.977-1.326-6.966-2.655c-2.655-1.326-5.309-3.316-9.288-2.985c-16.588,1.992-19.905,7.63-34.169,4.313
		s-17.913-6.303-33.172-5.309"/>
	<path fill="#010101" d="M199.573,294.765c-0.663-0.663,0.663-1.326,0-1.326c-4.311,0-10.283-3.318-13.602-7.962
		c-14.264-20.566-35.164-34.167-72.981-33.172c-56.727,1.326-79.286-21.894-83.597-66.346c-2.322-24.216-8.958-47.77-22.558-61.04
		l-7.962,4.977c15.259,13.269,20.236,34.832,23.553,64.356c5.308,44.452,41.135,65.02,82.934,65.683
		c43.457,0.663,59.048,9.62,75.302,31.516c5.308,6.966,11.28,9.288,15.923,10.283L199.573,294.765z"/>
	<path opacity="0.4" fill="#010101" enable-background="new    " d="M353.497,81.462c0.995,4.975,3.648,14.596,8.956,19.239
		c2.324,2.322,2.655,2.985,0.664,2.985c-1.992,0-16.588-0.663-16.588-0.663l-3.98-6.966L353.497,81.462z"/>
</g>
</svg>
