<?xml version="1.0" encoding="utf-8"?>
<!-- Generator: Adobe Illustrator 17.0.0, SVG Export Plug-In . SVG Version: 6.00 Build 0)  -->
<!DOCTYPE svg PUBLIC "-//W3C//DTD SVG 1.1//EN" "http://www.w3.org/Graphics/SVG/1.1/DTD/svg11.dtd">
<svg version="1.1" id="Layer_1" xmlns="http://www.w3.org/2000/svg" xmlns:xlink="http://www.w3.org/1999/xlink" x="0px" y="0px"
	 width="500px" height="1110.373px" viewBox="0 102.728 500 1110.373" enable-background="new 0 102.728 500 1110.373"
	 xml:space="preserve">
<path fill="#D34A47" d="M385.757,1179.629l10.653-177.517l29.416-50.215c0,0-66.951,27.389-179.038,27.389
	c-112.089,0-178.025-26.882-178.025-26.882l32.967,54.776l11.663,172.448c0,18.487,60.97,33.473,136.183,33.473
	C324.786,1213.103,385.757,1198.117,385.757,1179.629 M352.152,350.651l22.361-88.386l123.831-130.298l-32.638-27.798
	l-131.099,138.8l-25.963,105.597c-19.54-0.655-39.09-0.98-58.642-0.976C111.931,347.591,0,363.327,0,382.733
	c0,19.408,111.93,35.143,250.002,35.143c138.07,0,249.998-15.734,249.998-35.143C500,368.442,439.295,356.141,352.152,350.651"/>
<path fill="#FFFFFF" d="M339.146,400.149c0,0-4.843,1.086-19.089,1.146c-14.249,0.059-24.367-0.092-28.397-3.763
	c-1.084-0.986-1.677-2.942-1.671-4.268c0.012-2.522,1.802-4.008,4.083-4.939l2.157,3.384c-0.939,0.324-1.474,0.707-1.476,1.115
	c-0.008,1.916,14.569,3.227,25.719,3.086c11.152-0.138,24.626-1.056,24.638-2.945c0-0.571-1.019-1.109-2.791-1.533l2.147-3.36
	c2.89,0.897,5.412,2.631,5.406,5.63C349.846,398.802,343.356,399.578,339.146,400.149"/>
<path fill="#D34A47" d="M498.1,132.224c3.114-3.596-1.612-12.795-10.553-20.543c-8.946-7.744-18.721-11.109-21.84-7.512
	c-3.116,3.596,1.611,12.795,10.557,20.539C485.205,132.454,494.985,135.823,498.1,132.224 M379.802,746.027
	c-2.935-28.236,61.761-69.13,45.158-70.44c-35.743,2.043-53.532,41.887-71.515,83.617c-6.59,15.294-29.139,80.51-43.929,72.481
	c-14.786-8.025,19.169-61.653,28.686-93.502c-10.981,8.052-51.253,39.341-61.632,10.039c-16.686,14.171-52.34,21.849-48.318-15.376
	c-8.877,15.724-28.799,37.677-52.713,28.554c-31.405-11.976,18.198-112.014,30.531-106.968c12.336,5.045-2.489,27.834-6.372,36.683
	c-8.539,19.475-18.404,43.958-11.814,48.969c11.289,8.586,42.01-32.482,42.694-33.385c5.746-7.591,22.116-57.254,35.309-51.551
	c13.193,5.703-32.908,71.273-15.671,84.287c3.476,2.626,17.701-1.619,26.354-10.981c5.598-6.056,3.673-19.469,22.335-63.975
	c18.662-44.504,35.295-99.928,48.094-95.705c12.799,4.22,2.25,32.667-2.342,43.271c-21.546,49.77-58.804,131.996-41.233,125.771
	c17.571-6.222,26.72-6.588,43.926-26.723c17.206-20.135,16.413-53.301,27.881-52.595c11.472,0.707,9.547,11.341,6.765,19.438
	c11.288-12.917,53.504-40.121,63.696-13.178c12.072,31.897-60.401,77.972-42.331,75.621c17.618-2.291,46.161-20.369,58.347-36.805
	l33.544-301.573c0,0-33.755,27.934-248.498,27.934c-214.746,0-245.008-27.353-245.008-27.353l28.559,275.264
	c15.158-43.082,51.155-130.225,107.894-127.301c25.81,1.331,60.265,51.029,30.751,52.713c-12.493,0.71-13.761-24.807-28.554-28.554
	c-10.675-2.705-25.537,5.973-35.143,15.376c-19.156,18.747-60.353,92.712-54.91,129.588c6.935,47.012,64.874-16.337,74.678-35.144
	c6.904-13.248,11.568-52.501,26.668-48.382c15.102,4.118-1.317,44.627-12.263,80.443c-12.296,40.216-18.76,82.64-34.173,77.76
	c-15.413-4.876,9.694-56.794,8.785-65.891c-14.488,13.367-41.177,47.205-75.322,30.457l17.736,170.937
	c0,0,47.138,37.244,189.138,37.244s190.883-36.663,190.883-36.663l22.024-197.986C440.479,749.99,383.453,781.147,379.802,746.027"
	/>
</svg>
