<?xml version="1.0" encoding="utf-8"?>
<!-- Generator: Adobe Illustrator 17.0.0, SVG Export Plug-In . SVG Version: 6.00 Build 0)  -->
<!DOCTYPE svg PUBLIC "-//W3C//DTD SVG 1.1//EN" "http://www.w3.org/Graphics/SVG/1.1/DTD/svg11.dtd">
<svg version="1.1" id="Layer_1" xmlns="http://www.w3.org/2000/svg" xmlns:xlink="http://www.w3.org/1999/xlink" x="0px" y="0px"
	 width="112.574px" height="250px" viewBox="193.713 532.914 112.574 250" enable-background="new 193.713 532.914 112.574 250"
	 xml:space="preserve">
<path fill="#D34A47" d="M280.566,775.378l2.399-39.968l6.623-11.306c0,0-15.074,6.167-40.31,6.167
	c-25.237,0-40.083-6.053-40.083-6.053l7.422,12.333l2.625,38.826c0,4.163,13.727,7.536,30.661,7.536
	C266.838,782.915,280.566,779.54,280.566,775.378 M272.999,588.734l5.034-19.9l27.88-29.337l-7.348-6.259l-29.517,31.251
	l-5.845,23.775c-4.4-0.147-8.801-0.221-13.203-0.22c-31.087,0-56.287,3.543-56.287,7.913c0,4.37,25.202,7.913,56.287,7.913
	s56.287-3.543,56.287-7.913C306.288,592.739,292.62,589.97,272.999,588.734"/>
<path fill="#FFFFFF" d="M270.071,599.878c0,0-1.091,0.244-4.298,0.258c-3.208,0.013-5.486-0.021-6.394-0.848
	c-0.244-0.222-0.378-0.663-0.376-0.96c0.002-0.568,0.405-0.903,0.919-1.112l0.485,0.762c-0.211,0.073-0.332,0.159-0.333,0.251
	c-0.002,0.431,3.28,0.727,5.79,0.695c2.51-0.032,5.545-0.237,5.548-0.663c0-0.129-0.229-0.25-0.628-0.345l0.483-0.757
	c0.65,0.202,1.218,0.592,1.217,1.268C272.48,599.575,271.019,599.75,270.071,599.878"/>
<path fill="#D34A47" d="M305.859,539.555c0.702-0.809-0.363-2.88-2.376-4.625c-2.015-1.743-4.215-2.501-4.917-1.691
	c-0.702,0.809,0.362,2.88,2.377,4.625C302.956,539.607,305.159,540.365,305.859,539.555 M279.225,677.753
	c-0.661-6.358,13.905-15.565,10.167-15.859c-8.048,0.46-12.053,9.43-16.102,18.826c-1.484,3.443-6.561,18.127-9.891,16.319
	c-3.328-1.807,4.316-13.881,6.459-21.052c-2.472,1.813-11.54,8.858-13.876,2.26c-3.757,3.191-11.784,4.919-10.879-3.462
	c-1.999,3.54-6.485,8.483-11.868,6.429c-7.07-2.696,4.098-25.22,6.874-24.084c2.778,1.136-0.561,6.267-1.434,8.26
	c-1.922,4.385-4.144,9.897-2.66,11.026c2.542,1.933,9.459-7.313,9.612-7.517c1.294-1.71,4.979-12.891,7.95-11.607
	c2.971,1.284-7.409,16.047-3.528,18.977c0.782,0.591,3.985-0.364,5.934-2.472c1.26-1.364,0.827-4.383,5.029-14.404
	c4.202-10.02,7.947-22.499,10.828-21.548c2.882,0.95,0.507,7.355-0.528,9.743c-4.851,11.205-13.24,29.719-9.284,28.317
	c3.956-1.4,6.016-1.483,9.89-6.017c3.874-4.533,3.696-12.001,6.278-11.842c2.583,0.159,2.15,2.553,1.523,4.376
	c2.541-2.908,12.046-9.033,14.341-2.967c2.718,7.182-13.6,17.556-9.531,17.026c3.967-0.515,10.393-4.586,13.137-8.287l7.553-67.899
	c0,0-7.6,6.29-55.949,6.29s-55.163-6.159-55.163-6.159l6.43,61.976c3.413-9.7,11.518-29.32,24.293-28.662
	c5.812,0.299,13.569,11.49,6.924,11.868c-2.812,0.16-3.098-5.585-6.429-6.429c-2.404-0.608-5.749,1.345-7.913,3.462
	c-4.313,4.221-13.589,20.874-12.363,29.177c1.562,10.585,14.606-3.678,16.814-7.913c1.554-2.982,2.604-11.82,6.004-10.893
	c3.4,0.927-0.296,10.048-2.761,18.112c-2.768,9.054-4.224,18.606-7.694,17.507c-3.47-1.098,2.183-12.787,1.978-14.836
	c-3.262,3.01-9.271,10.628-16.959,6.858l3.993,38.486c0,0,10.613,8.386,42.584,8.386s42.977-8.254,42.977-8.254l4.959-44.576
	C292.887,678.645,280.047,685.66,279.225,677.753"/>
</svg>
