<?xml version="1.0" encoding="utf-8"?>
<!-- Generator: Adobe Illustrator 17.0.0, SVG Export Plug-In . SVG Version: 6.00 Build 0)  -->
<!DOCTYPE svg PUBLIC "-//W3C//DTD SVG 1.1//EN" "http://www.w3.org/Graphics/SVG/1.1/DTD/svg11.dtd">
<svg version="1.1" xmlns="http://www.w3.org/2000/svg" xmlns:xlink="http://www.w3.org/1999/xlink" x="0px" y="0px"
	 width="277.137px" height="290.164px" viewBox="0 0 277.137 290.164" enable-background="new 0 0 277.137 290.164"
	 xml:space="preserve">
<g id="Layer_2">
</g>
<g id="Layer_1">
	<path fill="#D5BC82" d="M205.098,234.197c-38.378,0-71.9-20.771-89.951-51.682c9.772-4.63,20.379-10.718,23.501-14.293
		c-13.466-14.554-32.28-25.071-37.451-44.444c0.038-0.637,0.077-1.274,0.126-1.908c0.08-0.012,0.157-0.031,0.24-0.039l-0.204-0.358
		C105.744,68.017,150.512,26,205.098,26c9.747,0,19.179,1.343,28.126,3.848C208.791,11.131,178.239,0,145.082,0
		C64.955,0,0,64.955,0,145.082s64.955,145.082,145.082,145.082c58.666,0,109.195-34.823,132.055-84.924
		C258.436,223.174,233.055,234.197,205.098,234.197z"/>
</g>
<g id="Layer_3">
	<g>
		<path fill="#FFFFFF" d="M34.899,122.986c0,0,0.087-0.167,0.249-0.48c0.145-0.323,0.428-0.755,0.822-1.296
			c0.415-0.518,0.952-1.121,1.636-1.748c0.34-0.314,0.729-0.616,1.126-0.954c0.418-0.307,0.861-0.628,1.335-0.943
			c0.958-0.614,2.019-1.251,3.189-1.825c1.159-0.599,2.424-1.144,3.753-1.648c2.668-0.984,5.596-1.801,8.575-2.372
			c1.497-0.243,2.999-0.463,4.49-0.571c1.488-0.133,2.961-0.165,4.385-0.146c1.425,0.039,2.803,0.146,4.093,0.379
			c1.293,0.202,2.496,0.519,3.582,0.875c1.079,0.382,2.043,0.813,2.827,1.317c0.397,0.244,0.765,0.472,1.069,0.739
			c0.312,0.253,0.613,0.466,0.832,0.72c0.23,0.239,0.435,0.453,0.613,0.638c0.15,0.209,0.278,0.387,0.381,0.531
			c0.205,0.287,0.315,0.439,0.315,0.439s-0.124-0.141-0.358-0.406c-0.116-0.131-0.259-0.293-0.426-0.484
			c-0.191-0.167-0.41-0.359-0.655-0.575c-0.231-0.23-0.543-0.417-0.864-0.64c-0.313-0.236-0.689-0.431-1.09-0.638
			c-0.794-0.427-1.758-0.772-2.814-1.105c-4.283-1.236-10.36-1.195-16.203-0.092c-2.932,0.516-5.823,1.276-8.457,2.203
			c-1.305,0.492-2.576,0.952-3.737,1.49c-1.174,0.511-2.238,1.087-3.204,1.645c-0.954,0.577-1.803,1.147-2.519,1.704
			c-0.712,0.562-1.281,1.113-1.726,1.589c-0.413,0.497-0.752,0.89-0.925,1.2C35.002,122.829,34.899,122.986,34.899,122.986z"/>
	</g>
	<g>
		<path fill="#FFFFFF" d="M46.631,133.598c0.131-0.383,0.244-0.772,0.389-1.149c0.185-0.359,0.332-0.748,0.554-1.09
			c0.435-0.688,0.944-1.342,1.563-1.882l0.458-0.412l0.5-0.359c0.325-0.254,0.685-0.452,1.042-0.655
			c0.715-0.405,1.477-0.723,2.252-0.992c1.559-0.52,3.185-0.802,4.814-0.944c0.815-0.073,1.634-0.111,2.451-0.106
			c0.818-0.01,1.635,0.029,2.451,0.079c0.816,0.055,1.628,0.141,2.44,0.243c0.808,0.121,1.615,0.252,2.415,0.419
			c0.801,0.162,1.599,0.342,2.387,0.558c0.792,0.204,1.574,0.444,2.352,0.699c1.553,0.517,3.079,1.129,4.544,1.889
			c0.729,0.387,1.45,0.794,2.134,1.272c0.696,0.456,1.338,1.012,1.94,1.617l0.519,0.522l-0.708,0.286l-2.176,0.878
			c-0.727,0.287-1.435,0.638-2.154,0.954c-1.44,0.638-2.852,1.348-4.324,1.962c-0.726,0.324-1.458,0.636-2.218,0.894
			c-0.754,0.266-1.492,0.577-2.28,0.752c-0.782,0.179-1.54,0.467-2.342,0.555l-2.388,0.319l-2.405,0.023
			c-0.805,0.033-1.588-0.057-2.386-0.112c-0.792-0.075-1.583-0.16-2.37-0.281c-0.787-0.12-1.573-0.253-2.348-0.445
			c-0.776-0.182-1.545-0.405-2.292-0.689c-0.753-0.267-1.477-0.617-2.166-1.026c-0.34-0.21-0.66-0.457-0.975-0.702
			c-0.275-0.293-0.608-0.53-0.817-0.88C46.96,135.176,46.754,134.368,46.631,133.598c0.173,0.765,0.423,1.535,0.974,2.104
			c0.217,0.326,0.554,0.543,0.83,0.813c0.318,0.223,0.638,0.447,0.977,0.635c0.688,0.365,1.407,0.672,2.155,0.899
			c0.742,0.242,1.504,0.425,2.273,0.568c1.535,0.303,3.096,0.48,4.661,0.575c0.778,0.032,1.573,0.099,2.347,0.043l2.332-0.088
			l2.299-0.375c0.768-0.107,1.504-0.384,2.257-0.567c0.757-0.174,1.477-0.486,2.209-0.752c0.735-0.256,1.453-0.57,2.167-0.897
			c1.439-0.616,2.846-1.339,4.288-1.995c0.724-0.326,1.43-0.684,2.169-0.985l2.21-0.916l-0.189,0.807
			c-0.543-0.535-1.116-1.059-1.772-1.494c-0.637-0.455-1.324-0.852-2.019-1.229c-1.401-0.744-2.88-1.355-4.391-1.873
			c-3.025-1.034-6.182-1.69-9.365-2.013c-0.797-0.071-1.595-0.133-2.395-0.145c-0.799-0.028-1.6-0.013-2.397,0.036
			c-1.594,0.092-3.184,0.326-4.711,0.782c-0.763,0.226-1.515,0.499-2.225,0.858c-0.355,0.181-0.714,0.356-1.038,0.587l-0.501,0.326
			l-0.462,0.378c-0.626,0.495-1.149,1.109-1.61,1.763c-0.239,0.322-0.403,0.689-0.611,1.035
			C46.923,132.843,46.786,133.225,46.631,133.598z"/>
	</g>
	<g>
		<path fill="#FFFFFF" d="M80.464,132.432c0,0-0.057-0.17-0.165-0.488c-0.046-0.163-0.126-0.354-0.238-0.568
			c-0.104-0.217-0.219-0.466-0.39-0.727c-0.299-0.543-0.776-1.133-1.34-1.781c-0.592-0.628-1.302-1.293-2.116-1.975
			c-0.82-0.675-1.756-1.349-2.78-2.005c-1.021-0.65-2.155-1.299-3.311-1.876c-1.231-0.594-2.451-1.062-3.797-1.401
			c-1.337-0.311-2.722-0.548-4.12-0.556c-0.697-0.061-1.396,0.007-2.092,0.009c-0.679,0.092-1.414,0.091-2.039,0.262
			c-0.723,0.117-1.302,0.357-1.9,0.592c-0.292,0.153-0.582,0.305-0.87,0.456c-0.28,0.168-0.544,0.362-0.814,0.539
			c-1.046,0.769-1.999,1.634-2.907,2.464c-0.463,0.424-0.9,0.803-1.319,1.206c-0.424,0.396-0.838,0.776-1.167,1.171
			c-0.713,0.763-1.214,1.584-1.54,2.376c-0.34,0.787-0.548,1.525-0.756,2.116c-0.404,1.189-0.673,1.854-0.673,1.854
			s0.177-0.694,0.486-1.909c0.161-0.605,0.308-1.352,0.595-2.194c0.119-0.428,0.34-0.857,0.555-1.313
			c0.266-0.427,0.54-0.886,0.909-1.3c0.342-0.447,0.735-0.842,1.137-1.257c0.397-0.42,0.843-0.848,1.268-1.276
			c0.867-0.871,1.788-1.815,2.903-2.64c0.287-0.196,0.567-0.407,0.868-0.594c0.313-0.17,0.628-0.342,0.946-0.515
			c0.679-0.288,1.404-0.57,2.077-0.687c1.451-0.306,2.893-0.403,4.368-0.358c1.469,0.033,2.922,0.304,4.32,0.653
			c1.385,0.367,2.755,0.924,3.931,1.519c1.245,0.625,2.325,1.341,3.349,2.058c1.014,0.72,1.936,1.453,2.741,2.184
			c0.807,0.728,1.48,1.47,2.032,2.16c0.527,0.711,0.964,1.348,1.227,1.928c0.153,0.277,0.251,0.546,0.331,0.779
			c0.091,0.23,0.15,0.427,0.178,0.594C80.425,132.257,80.464,132.432,80.464,132.432z"/>
	</g>
	<path fill="none" stroke="#FFFFFF" stroke-miterlimit="10" d="M61.131,126.432c-6.436-0.881-6.958,10.916-0.341,12.008
		c4.284,0.707,4.646-3.647,4.008-7.008c-0.703-3.703-3.036-3.353-5.667-5"/>
	<path fill="none" stroke="#FFFFFF" stroke-miterlimit="10" d="M91.798,220.572c8.414-0.022,16.308-2.616,22.419-7.345
		c5.183-4.01,9.501-10.489,17.562-10.068c6.639,6.895-7.665,12.366-13.601,14.707c-4.005,1.579-7.129,1.952-11.813,2.335
		c-3.875,0.316-9.873-0.389-13.277,0.744c8.572,3.081,22.195,3.843,32.396,2.622c4.855-0.581,9.561-2.481,11.383-6.341
		c1.387-2.94,2.254-10.414-4.097-9.669"/>
	<g>
		<path fill="#FFFFFF" d="M115.798,182.013c-0.811,0.286-1.561,0.629-2.367,0.95c-0.406,0.147-0.825,0.272-1.26,0.372l-0.67,0.09
			l-0.688,0.006l-0.25,0.002l-0.086-0.263c-0.188-0.576-0.442-1.134-0.531-1.748c-0.048-0.304-0.147-0.601-0.145-0.913l-0.034-0.931
			l0.089-0.931c0.05-0.307,0.14-0.605,0.209-0.908c0.181-0.591,0.402-1.165,0.681-1.703c0.544-1.081,1.245-2.03,1.787-3.019
			c0.124-0.25,0.278-0.496,0.362-0.758l0.157-0.39l0.097-0.404c0.092-0.272,0.061-0.552,0.085-0.839
			c-0.01-0.283-0.07-0.566-0.104-0.863c0.099,0.271,0.249,0.542,0.307,0.837c0.033,0.296,0.121,0.602,0.08,0.906l-0.023,0.463
			l-0.098,0.448c-0.057,0.307-0.18,0.581-0.278,0.871c-0.449,1.128-1.072,2.121-1.527,3.153c-0.227,0.516-0.432,1.032-0.577,1.562
			c-0.056,0.268-0.126,0.533-0.173,0.801l-0.094,0.812l0.015,0.82c-0.006,0.274,0.069,0.545,0.095,0.82
			c0.028,0.275,0.076,0.549,0.163,0.816l0.214,0.814l-0.335-0.26l0.581,0.052l0.594-0.021c0.401-0.037,0.807-0.099,1.215-0.187
			l1.242-0.264C114.953,182.113,115.372,182.049,115.798,182.013z"/>
	</g>
	<g>
		<path fill="#FFFFFF" d="M91.381,212.848c0,0,0.229,0.921,0.441,2.308c0.22,1.382,0.427,3.253,0.554,5.124
			c-0.004,0.485-0.023,0.935-0.041,1.399c-0.019,0.463-0.064,0.914-0.069,1.328c-0.018,0.215-0.003,0.413,0.009,0.603
			c0.016,0.19-0.004,0.393,0.056,0.558c0.042,0.175,0.083,0.344,0.123,0.509c0.075,0.154,0.147,0.302,0.216,0.444
			c0.121,0.302,0.367,0.507,0.514,0.739c0.153,0.232,0.361,0.374,0.495,0.525c0.288,0.294,0.452,0.462,0.452,0.462
			s-0.209-0.111-0.574-0.304c-0.173-0.114-0.425-0.198-0.637-0.406c-0.211-0.205-0.524-0.372-0.727-0.697
			c-0.112-0.156-0.228-0.319-0.349-0.487c-0.087-0.186-0.156-0.391-0.237-0.599c-0.097-0.209-0.105-0.427-0.152-0.651
			c-0.047-0.226-0.069-0.456-0.071-0.678c-0.02-0.46-0.034-0.911-0.016-1.363c0.002-0.455,0.005-0.917,0.007-1.379
			c-0.12-1.846-0.158-3.692-0.125-5.097C91.276,213.786,91.381,212.848,91.381,212.848z"/>
	</g>
</g>
</svg>
