<?xml version="1.0" encoding="utf-8"?>
<!-- Generator: Adobe Illustrator 17.0.0, SVG Export Plug-In . SVG Version: 6.00 Build 0)  -->
<!DOCTYPE svg PUBLIC "-//W3C//DTD SVG 1.1//EN" "http://www.w3.org/Graphics/SVG/1.1/DTD/svg11.dtd">
<svg version="1.1" id="Layer_1" xmlns="http://www.w3.org/2000/svg" xmlns:xlink="http://www.w3.org/1999/xlink" x="0px" y="0px"
	 width="138.5px" height="196.723px" viewBox="80.38 53.694 138.5 196.723" enable-background="new 80.38 53.694 138.5 196.723"
	 xml:space="preserve">
<g id="Layer_3">
	<polygon fill="#EFEFEF" points="150.002,68.68 115.28,92.15 184.72,92.15 	"/>
	<polygon fill="#A1A1A1" points="150.003,72.822 125.912,89.106 174.092,89.106 	"/>
	<rect x="80.38" y="237.667" fill="#A1A1A1" width="138.5" height="12.75"/>
	<g>
		<polygon fill="none" points="192,129.333 192,104 107,104 107,129.333 107,212 107,231.667 192,231.667 192,212 		"/>
		<path fill="#EFEFEF" d="M208,231.667V212h-5.333v-82.667H208V92.667h-5.333H192h-85H96.333H91v36.667h5.333V212H91v19.667h-6.667
			v6H214v-6L208,231.667L208,231.667z M107,231.667V212v-82.667V104h85v25.333V212v19.667L107,231.667L107,231.667z"/>
	</g>
	<g>
		<polygon fill="none" points="184.72,92.15 150,69.099 115.28,92.15 		"/>
		<polygon fill="none" points="188.593,91.3 150.002,65.677 150.005,65.681 		"/>
		<polygon fill="#EFEFEF" points="111.037,82.629 149.625,57.01 149.628,57.006 149.63,57.007 149.632,57.006 149.634,57.01
			188.223,82.629 209.125,82.629 209.125,83.667 212.26,83.667 212.26,80.667 190.256,80.667 149.635,53.698 149.632,53.694
			149.63,53.695 149.628,53.694 149.625,53.698 109.004,80.667 87,80.667 87,83.667 90.134,83.667 90.134,82.629 		"/>
		<polygon fill="#A1A1A1" points="149.63,60.428 187.625,85.479 205.917,85.479 209.125,85.479 209.125,83.667 209.125,82.629
			188.223,82.629 149.634,57.01 149.632,57.006 149.63,57.007 149.628,57.006 149.625,57.01 111.037,82.629 90.134,82.629
			90.134,83.667 90.134,85.479 92.75,85.479 111.792,85.417 		"/>
		<path fill="#A1A1A1" d="M150.005,65.681l-0.003-0.004L111.407,91.3H90.504v2.85H94.5v2.1h110.375v-2.1h4.621V91.3h-20.903
			L150.005,65.681z M184.72,92.15h-69.44L150,69.099L184.72,92.15z"/>
		<polygon fill="#EFEFEF" points="187.625,85.479 149.63,60.428 111.792,85.417 92.75,85.479 95.625,88 90.504,91.3 111.407,91.3
			150.002,65.677 188.593,91.3 209.496,91.3 204.292,88.125 205.917,85.479 		"/>
	</g>
</g>
</svg>
