<svg xmlns="http://www.w3.org/2000/svg" width="525.364" height="546.593" viewBox="0 0 525.364 546.593"><path fill="#DBC692" d="M149.385 265.207c1.817-22.778-8.267-43.516-26.242-57.336-16.597-12.761-38.758-20.129-59.554-21.705-14.872-1.127-29.665 2.801-40.878 12.848-10.571 9.472-16.206 23.535-19.213 37.094C-3.808 269.05 1.33 305.025 9.7 337.264c12.528 48.252 32.863 95.404 62.206 135.851 14.549 20.054 31.53 37.405 50.787 52.93 7.867 6.343 16.164 12.344 25.401 16.533 8.012 3.634 18.231 6.248 26.282 1.248 11.002-6.833 15.683-21.276 18.682-33.101 4.423-17.447 5.796-35.739 6.502-53.668 1.263-32.077.006-64.704-4.557-96.504-1.76-12.268-5.174-38.767-21.717-40.441-11.743-1.189-17.975 13.636-19.957 22.797-3.283 15.176.123 31.064 9.7 43.281 5.494 7.009 13.895 12.841 21.881 16.645 5.638 2.686 11.916 4.162 17.771 1.337 11.285-5.444 7.74-23.557 5.179-32.79-4.126-14.876-12.253-29.86-23.723-40.331a47.66 47.66 0 0 0-1.298-1.123l-6.059 7.853c35.493 25.853 73.453 55.517 91.857 96.619l7.853-6.059c-17.291-19.093-32.749-39.825-45.806-62.039-13.286-22.603-24.613-47.771-27.332-74.108l-7.524 4.317c21.207 16.313 40.318 35.512 56.053 57.17 6.781 9.334 12.093 18.752 16.685 29.287 3.869 8.876 9.095 17.542 18.933 20.396 2.505.727 5.582-.854 6.151-3.492 9.352-43.41 1.879-89.101-13.23-130.324-15.191-41.446-39.15-81.38-72.183-111.049-3.09-2.775-8.687-1.054-8.536 3.536 1.63 49.356 30.595 93.669 55.625 134.407 6.266 10.199 12.529 20.4 18.511 30.769 6.084 10.546 11.364 21.515 17.433 32.068 12.325 21.427 27.856 40.731 46.403 57.085 4.097 3.613 11.044-1.048 7.853-6.059-17.458-27.409-39.955-51.048-59.334-77.035-4.2-5.632-8.054-11.427-11.781-17.378-2.599-4.149-5.352-8.526-9.196-11.64-8.871-7.186-19.512-2.505-28.118 2.672l5.047 8.635c31.759-22.146 65.748-40.776 100-58.73 4.717-2.473 2.11-8.976-2.524-9.317-21.005-1.55-33.164 18.109-37.447 36.113-4.145 17.422-3.807 41.669 10.102 54.962 2.122 2.028 4.921 1.75 7.071 0 13.405-10.913 17.53-30.14 19.6-46.409 2.276-17.886 2.02-35.989.912-53.952h-10c2.056 28.092 11.466 57.796 26.079 81.889 2.716 4.478 8.915 2.294 9.317-2.524.904-10.837-1.38-21.728-2.507-32.469-1.064-10.135-1.85-21.191 5.381-29.286 12.175-13.63 35.621-14.156 52.444-14.197 5.488-.014 7.02-8.872 1.329-9.821-10.986-1.832-22.367-4.083-33.4-1.384-10.866 2.658-18.243 11.941-21.156 22.342-6.147 21.951 8.164 46.598 25.872 58.753 14.786 10.149 37.715 14.781 48.984-2.367 4.88-7.425 6.194-16.999 6.878-25.649 1.088-13.749.301-27.828.05-41.603-.863-47.242-5.687-94.421-22.142-139.019-6.771-18.35-14.282-36.721-22.526-54.458-7.992-17.195-17.837-34.897-32.735-47.074-2.879-2.353-7.205-1.652-8.357 2.206-12.304 41.207 9.851 86.44 29.806 121.43 11.402 19.993 24.338 39.084 37.715 57.796 13.526 18.92 27.19 37.583 43.046 54.65 14.237 15.324 29.351 29.814 43.099 45.592 4.265 4.895 11.168-2.185 7.071-7.071-20.91-24.936-52.589-36.747-78.182-55.817-10.973-8.176-20.216-19.115-33.617-23.455-12.998-4.209-26.971 1.901-38.705 7.061l5.047 8.635c41.177-23.986 72.725-63.037 117.853-80.448 5.951-2.296 3.367-11.968-2.658-9.643-46.176 17.815-78.17 56.949-120.242 81.456-5.705 3.323-.712 11.167 5.047 8.635 10.178-4.475 22.501-9.946 33.527-5.142 12.253 5.338 21.577 16.476 32.311 24.175 24.069 17.264 53.13 28.458 72.548 51.614l7.071-7.071c-19.626-22.524-41.999-42.527-60.747-65.835-13.046-16.22-24.987-33.611-36.714-50.796-13.295-19.482-25.768-39.594-36.242-60.747-9.622-19.433-17.856-40.492-19.964-62.235-.983-10.144-.351-20.34 2.571-30.125l-8.357 2.206c18.469 15.096 28.807 38.58 37.79 60.084 10.399 24.895 20.478 49.843 26.586 76.194 6.575 28.364 8.921 57.474 9.835 86.514.47 14.925.576 29.871.508 44.802-.04 8.865-.722 18.54-4.899 26.538-4.621 8.849-13.476 9.251-22.209 6.753-13.772-3.939-24.061-13.391-30.77-25.842-6.154-11.421-8.531-27.393.619-37.926 8.879-10.221 25.671-5.994 37.126-4.084l1.329-9.821c-19.911.049-43.611 1.714-58.734 16.315-18.829 18.179-4.722 47.335-6.583 69.637l9.317-2.524c-13.669-22.536-22.789-50.531-24.714-76.841-.467-6.379-10.398-6.46-10 0 1.003 16.255 1.273 32.586-.316 48.813-1.493 15.25-4.666 34.217-17.267 44.477h7.071c-11.083-10.592-10.636-30.453-7.752-44.243 2.938-14.045 11.335-30.993 28.026-29.762l-2.524-9.317c-34.252 17.954-68.241 36.584-100 58.73-5.211 3.634-.558 12.006 5.047 8.635 4.081-2.455 8.583-5.281 13.518-5.121 2.92.095 5.324 3.467 6.842 5.549 3.165 4.344 5.693 9.121 8.74 13.544 3.999 5.805 8.243 11.445 12.568 17.01 17.775 22.869 37.479 44.321 53.078 68.811l7.853-6.059c-18.002-15.873-32.77-34.346-44.839-55.061-5.863-10.063-10.886-20.579-16.649-30.7-5.907-10.374-12.172-20.541-18.42-30.712-24.274-39.519-53.552-82.835-55.135-130.784l-8.536 3.536c31.46 28.256 54.23 65.89 69.085 105.222 14.998 39.71 22.805 84.416 13.756 126.421l6.151-3.492c-8.571-2.486-11.856-13.193-14.995-20.542-4.667-10.927-11.585-20.618-18.735-30.056-15.866-20.945-34.752-39.247-55.552-55.247-2.902-2.232-7.89.768-7.524 4.317 2.806 27.173 13.681 52.705 27.04 76.284 13.632 24.062 30.48 46.453 49.027 66.934 4.097 4.524 10.02-1.219 7.853-6.059-19.097-42.649-58.637-73.396-95.445-100.206-4.591-3.344-10.367 4.195-6.059 7.853 11.517 9.78 19.077 24.28 22.908 38.729 1.412 5.327 2.461 11.472 1.119 16.623-.877 3.366-2.323 4.082-6.539 3.019-7.871-1.985-15.756-8.282-21.232-14.026-5.228-5.484-8.109-12.656-9.412-20.022-1.664-9.41.176-25.713 8.115-30.713 1.292-.814 1.454-.692 2.536-.374-.491-.144 1.07.641 1.267.81 1.053.905 1.839 1.982 2.583 3.139 5.42 8.427 7 19.736 8.302 29.438 1.66 12.376 2.852 26.378 3.567 39.52 1.018 18.72 1.27 37.5.484 56.233-.736 17.533-2.291 35.303-6.999 52.268-2.847 10.258-8.329 26.928-21.603 24.696-9.932-1.67-19.049-8.276-26.952-14.141-8.552-6.346-16.73-13.358-24.411-20.722-38.114-36.542-63.699-85.608-80.596-135.121-11.714-34.327-20.17-70.566-18.377-107.059 1.303-26.525 10.534-59.278 41.404-62.941 19.163-2.274 40.974 4.672 57.366 14.172 19.952 11.563 31.941 31.419 30.085 54.682-.504 6.425 9.5 6.376 10.009-.007z"/></svg>