<svg xmlns="http://www.w3.org/2000/svg" width="960" height="560" viewBox="0 0 960 560"><path fill="#E5CC61" stroke="#E5CC61" stroke-miterlimit="10" d="M285.198 194.357c-21.253-35.767-73.654-61.154-112.87-39.741-31.054 16.957-38.111 58.086-38.22 90.187-.111 32.585 7.306 65.976 22.177 95.033 7.002 13.682 17.361 29.192 33.075 33.459 20.007 5.432 37.682-13.901 48.295-28.05 5.284-7.044 9.546-14.767 14.757-21.85 5.118-6.957 10.673-13.778 14.266-21.693 2.254-4.965 3.547-12.051-.599-16.477-3.575-3.816-8.99-4.182-13.794-2.901-12.87 3.432-15.964 18.888-6.524 27.874 11.627 11.068 22.877-13.039 23.708-21.587.327-3.365-5.275-4.108-5.893-.798-2.054 11.003 1.782 21.375 4.029 32.021.613 2.902 5.134 2.842 5.786 0 2.269-9.894-2.114-20.852-1.664-30.934.186-4.183 1.682-7.352 6.271-7.192 3.069.107 4.967 4.36 5.905 6.701 3.585 8.946 4.11 19.202 4.774 28.706.504 7.221-.126 15.525 2.021 22.516.548 1.784 2.729 2.872 4.407 1.793 20.929-13.465 28.9-38.817 31.839-62.29 3.054-24.387 1.045-50.849-6.986-74.16-.882-2.561-3.96-2.866-5.483-.717-12.851 18.125-10.1 44.405-7.314 65.113 3.676 27.321 9.046 54.665 18.726 80.529l5.014-2.919c-14.358-16.104-26.964-36.281-31.114-57.697l-2.095 3.69c15.448-3.842 30.991-7.287 46.555-10.626l-3.69-3.69c-4.291 12.666-10.757 26.895-4.833 40.068.725 1.613 2.738 1.671 4.105 1.076 18.141-7.896 16.754-29.641 13.48-45.909l-5.014 2.919c9.329 9.76 12.5 23.831 16.087 36.434.697 2.451 4.202 3.022 5.483.717 10.949-19.7 26.313-36.621 35.132-57.531.93-2.204-1.708-4.218-3.69-3.69-11.51 3.066-15.761 18.782-17.177 28.966-1.376 9.891-1.431 26.621 10.015 30.955 6.065 2.296 12.541-.514 17.716-3.677 7.781-4.756 14.171-11.409 19.662-18.612 12.436-16.313 19.405-36.866 22.509-56.957 3.333-21.577 2.393-45.531-8.272-65.07-1.099-2.013-4.05-1.88-5.181 0-10.717 17.819-6.512 42.027-2.769 61.267 4.569 23.487 10.45 48.14 22.55 68.962 1.943 3.343 7.117.33 5.181-3.028-6.469-11.217-10.868-23.52-16.948-34.95-5.504-10.346-12.705-21.075-24.061-25.45l.717 5.483c23.848-10.155 50.598-9.689 74.798-18.751 3.589-1.344 2.036-7.145-1.595-5.786-24.709 9.252-51.852 8.975-76.232 19.356-2.672 1.138-1.372 4.679.717 5.483 10.922 4.208 17.269 16.356 22.287 26.167 5.299 10.359 9.317 21.386 15.137 31.476l5.181-3.028c-11.43-19.669-16.759-42.11-21.388-64.212-3.811-18.199-8.609-41.837 1.607-58.837h-5.181c9.456 18 10.341 37.697 8.075 56.903-2.452 20.777-9.803 41.361-22.312 58.224-5.028 6.779-25.749 29.623-34.039 15.907-6.138-10.155-2.485-27.097 2.57-36.916 1.713-3.327 4.216-7.039 8.03-8.055-1.23-1.23-2.46-2.478-3.69-3.708-8.59 20.366-23.858 36.891-34.527 56.089 1.828.239 3.656.473 5.483.712-3.889-13.667-7.525-28.513-17.63-39.084-2.199-2.301-5.578.115-5.014 2.918 2.766 13.743 4.728 32.407-10.723 39.132l4.105 1.076c-5.01-11.14 1.843-24.833 5.438-35.444.778-2.297-1.597-4.139-3.69-3.69-15.564 3.339-31.107 6.784-46.555 10.626-1.676.417-2.4 2.118-2.095 3.69 4.346 22.428 17.633 43.493 32.657 60.345 1.944 2.18 6.069-.099 5.014-2.919-9.057-24.198-14.083-49.476-17.941-74.958-3.119-20.606-6.961-47.888 5.923-66.06l-5.483-.717c7.523 21.837 9.301 45.902 7.181 68.797-2.067 22.325-9.339 48.049-29.277 60.877l4.407 1.793c-.944-3.073-.913-6.506-1.116-9.685-.36-5.644-.649-11.291-1.13-16.928-.85-9.949-1.572-22.357-7.732-30.699-4.906-6.644-16.148-6.918-19.482 1.54-2.256 5.723-1.349 13.095-.686 19.037.61 5.461 2.521 13.197 1.268 18.197h5.786c-1.989-9-5.85-19.709-4.029-29.461-1.964-.266-3.929-.847-5.893-1.113-.44 4.532-7.564 22.804-14.178 16.508-6.66-6.34-2.428-15.375 5.32-17.441 9.343-2.491 8.773 6.947 5.913 12.781-4.306 8.783-11.159 15.946-16.444 24.097-7.043 10.863-13.916 21.669-23.29 30.727-7.029 6.791-16.292 13.063-26.463 12.491-16.473-.927-27.405-20.398-33.861-33.252-14.826-29.52-21.259-63.735-20.245-96.609 1.033-33.499 11.896-74.496 48.825-83.701 34.094-8.498 73.702 13.794 90.972 42.859 1.969 3.324 7.157.308 5.176-3.027z"/></svg>