<svg xmlns="http://www.w3.org/2000/svg" width="500.01" height="579.586" viewBox="-96.5 -111.858 500.01 579.586"><path fill="#010101" d="M-18.043 141.507c-16.92 7.959-61.703 43.788-70.328 54.403-8.958 10.615-11.611-5.971-2.322-33.504 7.296-22.226 25.876-52.415 57.058-78.289 18.244-14.928 58.385-36.49 82.932-49.097C54.274 32.365 118.63 5.164 176.02-8.437c4.977-1.327-5.971 8.293-7.63 13.601C159.764 30.375-12.406 138.52-12.406 138.52l-5.637 2.987zm242.495 304.197c2.985 17.913.332 19.241-18.244 21.563-18.578 2.322-32.179-4.645-37.154-9.288-4.977-4.646-5.971-14.928-.995-24.216 2.987-5.972 5.972-7.962 7.632-15.26 1.658-6.966 2.985-8.625 4.311-11.278 1.326-2.324 1.66-4.647 1.99-20.9.332-16.254 0-46.775 1.66-59.711 1.66-13.269 59.05 5.971 59.05 5.971s-13.602 33.837-17.251 42.13c-3.65 8.295-3.318 24.216-3.318 27.534s-1.326 9.951-2.322 10.283c-.995.331 3.318 8.956 1.326 13.933-1.328 4.643 2.984 16.586 3.315 19.239zm21.895-507.219c-1.992-12.606 0-37.488 2.653-41.467 8.295-11.28 52.082-12.606 61.372.663 3.98 5.971 3.648 19.904 2.985 28.861-.663 8.956-2.985 28.197-3.318 34.501-.331 4.645-48.433 11.941-59.048-.664-2.986-3.316-4.644-21.894-4.644-21.894zm97.53 475.041c20.236 14.598 35.827 17.251 46.11 22.558 10.283 5.309 7.63 15.593-9.62 18.578-13.933 2.653-35.827-2.655-50.423-2.655s-47.107 1.66-55.732-4.311c-9.951-6.966-5.64-19.905-5.64-19.905 2.655-7.296 9.288-23.553 7.298-36.822-1.99-13.269-4.645-20.566-9.62-32.842-4.975-12.273-8.624-42.46-3.979-44.12 4.645-1.66 3.316 0 9.288 1.326 5.971 1.326 12.606 3.318 25.544 3.318s27.202-1.992 32.179-2.985c4.975-.995 8.956-1.992 7.296 8.293-1.658 10.283-6.633 29.524-6.966 44.452-.331 14.928-.331 32.179.664 35.164.994 2.985 8.293 6.303 13.601 9.951z"/><g fill="#8AC640"><path d="M272.886-28.341C236.396 3.175 165.736 11.798 60.91 52.27 34.039 62.553-37.614 93.405-54.865 125.584 3.188 92.08 24.751 138.19 29.394 185.627c4.311 44.452 26.539 67.675 83.597 66.346 58.717-1.326 76.631 32.842 92.885 72.983C237.39 171.361 287.814 141.507 320.322 115.3 389.324 59.236 304.4-39.621 272.886-28.341z"/><path d="M272.886-28.341C185.309 2.178 98.726 9.808-3.115 72.506c-24.216 14.928-75.303 48.763-85.256 113.453C-51.219 144.823 34.7 93.074 139.86 60.233c53.077-16.588 91.891-27.534 138.996-45.779-3.315-21.233-3.315-29.526-5.97-42.795z"/></g><path fill="#010101" d="M384.679 153.448s-6.303 21.563-18.909 28.531c0 0-9.288 3.318-27.864-6.966-5.308-2.985-9.288-13.269-8.958-16.588.332-7.962 5.308-11.611 5.308-11.611s5.309-8.958 11.611-8.625c6.304.331 16.92 1.326 20.237-1.66 2.984-3.317 19.24 5.971 18.575 16.919zM249.333-55.212s-1.326 16.92-3.648 27.534c-.332 1.992-10.283 2.985-17.583 5.972 13.933 39.807 97.862 39.475 108.81 19.904-5.308-3.648-15.923-9.288-20.899-11.278-4.977-1.992-4.645-1.66-4.977-10.948-.331-9.29-.995-26.539-1.66-31.184-.663-4.645-52.083-4.645-60.043 0z"/><path fill="#F0EFEF" d="M252.65-55.212s0 9.62-.995 18.909c-.331 4.313-.663 6.966-1.326 10.283-.332 1.992 11.278 9.951 14.596 27.534 15.923 35.495 52.747 17.913 68.006.995-5.308-3.65-13.933-8.625-23.884-12.606-4.977-1.992-2.655-6.303-2.985-15.591-.332-9.288-1.66-22.891-2.322-27.866-.667-4.976-43.127-6.303-51.09-1.658z"/><path fill="#010101" d="M249.333-55.212s-.332 5.972-1.326 12.938c4.311 4.311 9.951 10.283 14.265 13.933 2.985 2.655 10.282 2.322 16.918 2.322 5.971 0 11.278.663 13.601-.663 5.309-2.655 12.938-9.288 17.251-14.265-.331-5.971-.663-11.611-.993-14.265-.336-4.645-51.756-4.645-59.716 0z"/><path fill="#010101" d="M279.521-30.001c-3.982 0-8.627-.331-12.275-.995-1.66-.331-3.318-1.326-4.645-1.99-2.322-1.66-4.645-3.648-7.296-5.64-5.309-3.98-5.64-6.303-5.64-7.296 2.322-20.9-.664-38.482-.664-38.482s-2.322-8.958 10.283-11.28c12.606-2.322 20.236-2.653 20.236-2.653s7.962 0 20.236 2.653c12.606 2.322 10.283 11.28 10.283 11.28s-2.985 17.581-.663 38.482c0 .993-.331 3.316-5.64 7.296-4.645 3.318-8.293 6.966-11.941 7.63-3.65.665-8.295.995-12.274.995z"/><path fill="#010101" d="M279.521-106.962c-21.894 0-26.208 5.971-32.511 12.606-1.326 1.658-.332 11.611 1.992 32.842h2.985s-1.992-5.972-1.66-12.938c.332-6.966 1.66-6.633.663-8.293-1.326-1.992-3.98-5.309 1.992-8.625 5.971-3.318 15.259 2.653 26.539 2.985 11.278-.332 20.899-6.303 26.869-2.985 5.971 3.316 3.318 6.633 1.992 8.625-1.327 1.99.331 1.326.663 8.293.331 6.966-1.66 12.938-1.66 12.938h2.985c1.99-21.231 3.318-30.519 2.322-32.179-5.639-7.298-11.277-12.938-33.171-13.269zm105.158 261.405s-6.303 20.236-18.576 27.202c-2.655-1.326-2.322-3.316-4.645-6.303-.664-.993-2.987-1.66-3.98-2.653-.995-.995-.663-2.655-2.322-3.98-1.327-1.327-2.322-.332-3.65-1.327-1.326-1.326-1.66-2.985-2.653-3.979-.664-.665-3.318-.995-3.98-1.66-1.66-1.66-16.254-4.645-15.591-7.962 1.326-4.977 3.98-8.625 3.98-8.625s6.303-9.288 12.604-8.958c6.303.332 12.275 1.66 15.593-1.326 3.649-3.32 24.217 8.956 23.22 19.571z"/><path fill="#010101" d="M341.554 7.818s20.899-4.977 35.164 8.625c14.265 13.933 13.269 31.182 8.958 41.797 3.648 4.313 10.283 16.254 5.308 30.519 21.894 18.576 12.273 47.107-7.298 66.015 0 0-4.645-17.251-23.221-18.246.663-6.633-17.251-11.943-8.958-29.193-12.606-2.985-12.273-11.611-14.264-22.224-1.659-10.616 4.311-77.293 4.311-77.293z"/><path fill="#F0EFEF" d="M333.924 17.106s24.216-12.273 38.482 1.66c14.264 13.933 10.282 29.192 5.971 39.807 3.648 4.311 12.273 16.588 6.966 31.182-.995 3.318-8.293 3.318-13.602 11.943 13.269-7.632 21.563-5.64 24.549 3.979 4.645 14.928-5.64 32.842-14.596 42.794 0-.332-.332-.664-.332-.995-1.326 4.977-2.985 14.596-12.936 25.211-4.977 5.308-8.958 4.645-14.598 3.318-6.633-1.66-8.956-4.647-18.244-9.62-5.308-2.985-2.322-6.635-2.322-9.62 0-.663.663-1.66 1.66-2.985.663-1.66 2.653-4.311 5.638-7.298 0 0 4.313-5.971 10.617-5.64 6.303.332 12.936-.993 14.596-2.653 0-11.611-13.269-11.943-8.625-31.846.332-.995 1.992-2.655 7.298-3.318-7.962-1.66-11.611-1.992-17.251-7.298-3.98-3.648-6.966-8.293-7.962-14.264-1.991-10.284-5.309-64.357-5.309-64.357z"/><path fill="#010101" d="M263.928-3.793c-1.99-2.655-12.273-15.923-31.846-21.231-5.64-1.66-9.288 2.985-14.926 6.303-1.66-.995-8.958-4.313-12.938-1.992-3.98 2.321-6.633 4.645-10.615 6.303-1.992-.995-7.298-.995-11.611.663-4.313 1.327-10.948 4.313-17.251 12.938-3.98 14.265 70.326 3.648 70.326 3.648l28.861-6.632z"/><path fill="#8AC640" d="M264.593-3.793c-10.617-3.65-8.958-15.923-32.511-17.913-4.645-.332-7.63 3.316-10.948 5.638 1.66 1.66 3.318 4.313 4.313 6.966-2.985-3.316-8.293-7.63-13.602-8.625-4.975-.993-8.293 2.655-13.601 5.309.993.993 1.99 2.653 3.316 4.645-4.645-2.985-7.961-3.98-14.264-1.66-4.313 1.326-12.606 4.976-18.909 13.933-3.98 14.265 67.01-1.66 67.01-1.66l29.196-6.633z"/><path fill="#010101" d="M326.958 1.515s0-3.65-.332-6.966c0-.663-2.653-2.322-2.653-2.985l-.663-.664s5.308-2.985 9.288-1.326c4.311 1.326 6.633 6.966 6.633 6.966 7.63-2.653 8.293.332 11.943 4.313 7.962-1.66 8.956 1.326 13.933 8.625 0 0-5.971-.995-17.581.993-11.279 1.658-20.568-9.288-20.568-8.956z"/><path fill="#8AC640" d="M325.631-.144s1.99-1.66 1.326-1.992c3.648-1.99 8.625-4.311 10.948 1.992 7.63-2.655 8.625.995 12.273 4.977 9.288-4.313 9.951.993 10.615 3.316-2.985 0-7.296.332-13.269.995-11.277 1.659-22.225-9.621-21.893-9.288z"/><path fill="#010101" d="M212.843-8.437s18.909 6.633 34.832 5.638c15.923-1.326 43.125-2.653 57.721 5.972 0 0 14.928-5.309 28.861-1.66 13.935 3.648 39.477 27.534 31.848 52.745-.664 1.66-4.977 4.313-9.953 5.972 0 0 2.655 11.278-1.99 20.566-4.645 8.958-14.928 26.208-15.26 50.092-.331 3.98-.993 12.273-1.658 16.254-25.876-.993-65.683-10.615-104.827-9.951.331-4.311.663-6.966.995-11.278h.993c-1.99-10.948-2.653-16.588-4.645-24.881-12.606-7.961-25.876-17.249-37.153-34.832-10.948-17.581 20.236-74.637 20.236-74.637zm128.049 179.136s20.568 73.646-3.648 104.497c0 0 3.648 14.264-4.645 29.524-1.327 6.633-2.987 12.606-3.98 19.239-4.313 27.534-11.612 39.144-13.602 83.264l-19.905-.331s-2.322-31.846-9.288-48.765c-3.979-9.619-19.573-22.558-18.907-35.495.663-9.953 2.653-18.246 19.573-31.516 1.326-19.239-17.915-37.486-14.928-109.14l69.33-11.277z"/><path fill="#F0EFEF" d="M334.921 167.712c5.308 33.837 17.581 83.929-4.645 108.476.993 4.645 1.658 11.28.331 18.909-.663 3.98-1.99 8.293-3.648 12.936-3.318 7.962-4.645 19.573-5.64 26.539-4.313 27.534-4.313 28.863-6.303 72.983l-19.905-.332s-2.322-31.846-9.288-48.763c-3.979-9.62-12.273-17.913-12.936-30.851-.663-9.951 6.303-29.855 22.891-29.192-.995-40.139-19.573-32.179-24.548-115.775l63.691-14.93zM212.843-8.437s7.298 2.322 15.259 2.985c7.962.663 16.588 0 24.216-.332 15.923-1.326 38.482-2.985 53.41 5.64 0 0 8.293-2.655 17.251-1.992 3.98.332 7.962 3.65 12.606 4.977 14.596 3.648 28.529 27.864 22.224 49.76-.663 1.66-5.308 0-10.615 1.66.993 4.645 1.66 15.26-3.65 26.539-5.638 11.28-12.936 25.876-11.611 53.742-34.832-1.66-50.423-3.98-84.924-5.64-2.985-12.275-4.977-24.549-5.308-30.851 4.645-2.322 7.296-4.311 10.948-8.293-9.951 1.66-13.933.995-19.905-2.322-5.971-3.318-16.586-13.933-21.894-20.899-.663-.664-4.311 10.282-12.604 10.615-2.987-4.313 9.619-16.588 7.296-21.231C197.25 39 212.843-8.437 212.843-8.437z"/><path fill="#010101" d="M337.572 140.178s.663 11.943.663 14.928c0 3.318 2.655 13.269 2.985 17.913-3.648 6.303-19.571 20.568-48.433 25.876-28.529 5.971-66.346-38.812-66.346-38.812.995-4.313 4.313-16.92 6.635-23.553.332-.663.995-2.322.995-2.985 2.988-4.313 103.501 6.633 103.501 6.633z"/><path fill="#F0EFEF" d="M330.276 141.174c0 8.293 1.326 14.265 2.322 19.573 1.658 9.62 4.311 15.923 4.311 22.226 0 19.239-25.211 15.922-46.444 16.586-28.529 5.972-52.745-38.812-52.745-38.812 1.99-7.63 3.318-16.254 6.303-23.553.331-3.98.995-8.956 1.326-11.278 40.472 0 69.001 2.322 85.588 3.979.665 3.649.002 9.952-.661 11.279z"/><path fill="#010101" d="M298.428 183.967s-17.581-39.144-70.328-27.532c-12.604 35.495-29.524 76.299-18.576 120.419-10.948 14.928-23.553 23.223-23.553 50.755 0 27.534 1.327 32.179 1.327 32.179l38.812 1.992s12.606-16.254 17.581-33.837c1.327-4.977 2.655-13.933 1.66-24.216 1.326-1.99 6.966-6.633 7.63-15.591 0 0 18.909-9.951 29.856-34.167 10.285-21.9 7.63-40.809 15.591-70.002z"/><path fill="#F0EFEF" d="M298.428 183.967c-.993-3.648-14.264-39.475-63.361-28.861-28.86 76.963-18.244 108.81-13.933 122.741-19.573 24.879-28.529 30.187-24.547 80.611h25.876c11.941-18.909 14.596-25.876 15.259-50.755 0-.995-3.648 1.99-6.303 5.308 1.992-10.283 7.63-12.273 11.943-18.576 1.99-2.655 3.648-6.635 3.648-11.943 23.221-15.591 31.846-35.164 36.822-55.4 3.982-13.932 8.625-36.822 14.596-43.125z"/><path fill="#010101" d="M216.491 130.559s8.958.331 16.92 2.985c7.63 2.653 7.63 4.311 10.615 7.63 2.985 3.319 10.283 8.293 8.958 13.269-.664 2.655-2.322 3.318-4.645 5.64-.995.995-8.295 8.956-9.953 9.951-.995.663-2.322 1.66-3.318 2.322-.993.663-3.979 2.655-4.975 3.318-3.318 1.66-5.64 2.655-9.288 2.322 0 0-8.293-.332-13.602-5.971 0 0-.663-2.655.664-3.98 0 0-6.967-5.972-8.958-9.953-1.992-3.979-1.992-9.619-.663-12.604.664-2.988 13.6-11.281 18.245-14.929zm8.295 322.776l-.995 8.295s-2.985 3.648-25.211 3.318c-22.558-.332-28.529-7.298-30.519-10.948l-1.326-8.625s4.313-6.303 5.308-6.303c7.298.663 32.179 10.616 49.429 13.269 1.654-.002 1.985.661 3.314.994zm48.1-16.919c0 3.648-.332 3.648-.332 7.298 3.98 2.985 13.935 4.645 32.842 4.311 27.534-.663 53.077 8.295 84.259 2.985l.332-5.971-2.985-.331-110.467-8.958-3.649.666z"/><path fill="#010101" d="M297.102 448.027h8.293c17.915-.663 34.833 3.318 53.077 4.313 9.62-.332 21.563-2.655 20.568-9.62l-94.212-7.962c-5.639 6.302-1.328 11.609 12.274 13.269zM188.957 308.368c2.985 1.99 23.221 13.933 56.063 12.273-.664 6.303-.332 18.578-14.928 40.139-7.298 10.615-13.602 29.193-14.928 52.747.332 5.308 3.318 9.951-.663 16.918 1.326 4.311 6.633 12.936 9.288 18.244 2.653 5.309 3.98 11.28-13.602 11.612-17.913.331-46.775-1.66-42.793-15.591 1.992-7.298 7.63-14.928 8.295-17.915.663-2.985.663-11.941 6.301-17.913 4.977-16.586 3.318-32.509 2.324-47.437-1.66-15.593-1.992-40.472 4.643-53.077zm30.852-270.363c23.553-31.516 3.648-56.726-34.167-49.097-15.26 2.985-30.519 13.602-31.516 32.842-4.975.663-16.254 1.326-21.894 21.894-4.311 15.923-6.633 18.909-14.265 26.869-4.975 5.64.332 17.251 3.98 25.545 12.275 28.529 50.092 31.182 75.636 52.745 8.625-2.322 17.581-11.941 20.236-18.244-21.563-25.545-16.92-35.496-25.545-48.765 9.289-3.319 30.52-16.255 27.535-43.789z"/><path fill="#F0EFEF" d="M215.164 36.015c1.326-1.992 3.648-6.303 4.645-7.962.332-.332 3.98 5.971 4.313 5.64 8.956-14.598 11.278-35.828.993-37.819-2.322-.332-6.633-1.326-10.283-2.655-6.633-2.322-12.604-2.322-23.221-.331-14.596 2.653-29.192 13.269-29.192 28.529 0 .995 10.282 3.98 13.269 16.255-4.977-6.967-13.602-14.598-23.886-7.962-10.948 6.966-5.308 22.889-19.904 39.475-4.977 5.64-4.313 12.275.993 25.544 8.625 20.9 49.429 32.179 71.655 52.082 5.308-2.322 8.956-7.63 11.611-11.611-14.928-15.591-20.9-30.188-25.211-40.804-5.308-12.273-11.28-19.239-22.891-28.531 5.972 2.322 10.617 4.645 13.269 6.635 2.985 1.99 7.298 2.322 11.28.995 14.267-4.971 21.897-24.876 22.56-37.48z"/><path fill="#010101" d="M359.468 41.322c-.995 12.606-10.283 6.303-15.259 3.98-9.953-4.313-19.905-7.298-31.516-7.298s-26.538.996-39.475 4.314c-17.913 4.976-23.223 4.645-31.184.663-7.961-4.313-21.892-14.928-21.892-14.928s-.332 3.318 2.985 7.63c4.311 5.308 13.933 11.943 26.869 16.254 6.303 1.992 11.28.663 16.92-.663 29.524-7.298 60.706-8.625 86.912 7.298 1.327.663 5.972-1.327 7.962-4.313 2.653-4.311-2.322-12.937-2.322-12.937z"/><path fill="#0A1825" d="M208.53 167.712c2.653 1.66 5.971 2.655 9.619 5.64 0 0-2.985 0-4.311-1.326-1.66-.995-4.977-3.981-5.308-4.314z"/><path fill="#F0EFEF" d="M304.4-95.351c-.995-2.985-8.295-8.295-25.211-8.295-18.246 0-23.553 5.64-23.884 8.625 0 .995-1.327 11.612-1.66 15.923 0 0 0 5.308.331 13.269.332 5.308 1.66 8.293 2.322 15.26.663 7.296 2.655 11.941 6.303 17.913 1.66.993 2.985 1.99 4.645 2.322 6.635 1.326 18.246 1.658 24.549 0 3.648-.995 8.293-7.298 9.288-12.938 1.326-6.966 2.653-11.943 2.985-16.254.663-4.311.995-13.933 1.326-16.588.996-7.295-.663-18.575-.994-19.237z"/><path fill="#010101" d="M269.568 314.67s17.583 7.63 61.04.995c0 0-12.273 61.703-6.633 92.552 0 0 5.638 7.962 47.437 23.221 0 0 18.576 4.645 17.913 13.935 0 0 .663 1.99-21.894 1.326-22.557-.664-43.789-4.645-58.717-4.645-14.928 0-30.851.663-33.504-3.648-2.985-3.98.663-14.265 4.975-20.237 4.647-6.301 3.318-10.948 2.987-22.224-.998-29.524-23.556-60.044-13.604-81.275z"/><path fill="#8AC640" d="M265.919 320.31c-2.322 3.318.331 15.922 3.648 28.197 3.318 12.273 10.617 19.573 12.275 39.807 1.658 19.904 1.99 22.558-3.65 34.167-5.64 11.609-7.298 22.226 12.273 22.558 19.571.332 30.189-.332 50.092 2.655 19.905 2.985 26.871 3.98 37.819 2.322 10.948-1.658 13.269-5.309 8.625-8.625-4.645-3.318-23.886-6.966-32.179-13.602-7.962-5.971-30.519-15.923-30.85-18.576-.995-8.958-1.327-41.467.331-52.082 1.66-10.617 3.98-25.876 4.645-29.856s3.98-7.962-1.66-6.635c-5.638 1.326-26.869 4.313-42.793 3.318-15.922-.995-17.58-4.644-18.576-3.648z"/><path opacity=".3" fill="#010101" d="M277.199 422.815c5.638 2.653 13.933 4.645 20.236 4.645 0 0-2.324 10.948 1.326 17.581 3.648 6.635-26.539 2.655-26.539 2.655l-1.326-23.553 6.303-1.328zm87.909 28.529c5.308-1.66 8.958-7.63 4.645-13.269-4.645-5.64-8.625-6.635-2.655-6.966 5.972-.332 27.866 12.936 27.866 12.936l-11.28 10.283-18.576-2.984zM264.924 333.247c7.63 2.655 19.241 3.318 29.193 2.985 9.951-.331 24.879-1.66 34.501-4.975 9.619-3.318 5.638 3.648 5.638 3.648l-5.308 4.977s-12.606 4.975-33.172 4.645c-24.216-.332-31.516-2.985-31.516-2.985l.664-8.295zm.662 16.587c7.632 2.655 19.241 3.318 29.193 2.985 9.951-.331 23.221-.331 32.842-3.98 3.98-1.326 1.66 4.313 1.66 4.313l-1.66 2.985s-12.938 4.645-33.174 4.311c-24.216-.331-28.529-2.322-28.529-2.322l-.332-8.292z"/><path fill="none" d="M269.568 314.67s28.861 10.283 61.372 3.318c0 0-12.606 59.38-6.966 89.899 0 0 5.638 7.961 47.437 23.221 0 0 18.576 4.645 17.913 13.933 0 0 .663 1.992-21.894 1.326-22.558-.663-43.789-4.645-58.717-4.645-14.928 0-30.851.664-33.504-3.648-2.985-3.98.663-14.265 4.975-20.236 4.647-6.303 3.318-10.948 2.987-22.226-.997-29.191-23.555-59.711-13.603-80.942z"/><path fill="none" d="M269.568 314.67s28.861 9.951 61.372 2.985c0 0-12.606 59.713-6.966 90.232 0 0 5.638 7.961 47.437 23.221 0 0 18.576 4.645 17.913 13.933 0 0 .663 1.992-21.894 1.326-22.558-.663-44.122-6.966-58.717-4.645-15.591 2.655-30.851 1.66-33.504-3.648-2.322-4.311.663-14.265 4.975-20.236 4.647-6.303 3.318-10.948 2.987-22.226-.997-29.191-23.555-59.711-13.603-80.942z"/><path fill="#010101" d="M243.693 117.29c0 2.322 25.876 15.259 40.139 17.913 14.265 2.653 44.121 0 48.765-.995l-.664 4.645s-35.495 5.308-62.696-1.99c-27.203-7.298-24.216-8.958-24.216-8.958l-1.328-10.615z"/><path d="M188.293 400.257c3.98 1.992 18.246 5.64 27.534 3.65 1.326-.332 0-22.891 3.65-33.174 5.308-14.265 13.933-25.876 17.912-51.086-13.933-1.327-29.855-4.977-38.149-7.632-10.615 32.512-6.965 60.376-10.947 88.242zm22.227 20.901c2.322.663 3.98 3.316 4.645 1.66 1.326-2.987-2.322-8.625-2.655-12.606v-.332c-2.985-2.653-23.221-2.985-21.894-1.66-2.322 4.313-5.971 3.65-7.296 12.275-.663 4.311 4.645.663 9.619.331-8.956 5.971-19.239 13.602-20.899 20.236-1.99 9.288 1.327 11.943 11.28 16.92 8.625 1.99 18.909 2.322 26.869 1.99 8.958-1.66 10.617-5.971 7.962-11.943-3.982-8.958-6.635-20.569-7.631-26.871z" fill="#F0EFEF"/><path fill="#010101" d="M214.169-9.765c10.948 6.303 26.208 4.645 31.846 4.313 1.327 0 14.598-2.322 15.26-1.992 1.326.332 1.326 1.327 1.326 1.327s-4.975 2.653-16.254 3.316c-10.615.663-23.221 0-30.187-3.316-8.294-3.648-1.991-3.648-1.991-3.648zm112.789 6.303c1.99 1.326 14.928 6.303 20.568 12.273 4.975 5.309 2.322 4.977 1.326 3.65-1.326-1.66-11.611-8.625-15.591-10.283-3.98-1.658-8.958-4.645-8.958-5.308s2.655-.332 2.655-.332z"/><path fill="#F0EFEF" d="M212.509 134.207c9.62-.663 19.573 1.66 25.876 8.293 3.318 3.318 8.625 6.966 7.962 10.283 0 .995-1.992 3.65-3.648 5.64-.995 1.326-3.98 4.311-4.977 5.308-1.326.995-5.971 4.645-6.966 5.308-.995.664-2.322 2.324-3.318 2.655-3.316 1.66-6.966.332-10.283-1.326-3.316-1.66.664-1.992-2.985-4.645-8.956-6.303-13.933-10.617-10.283-22.891.331-2.322 3.979-4.977 8.622-8.625z"/><path opacity=".4" fill="#010101" d="M127.919 58.241C98.063 70.184 22.095 108.002.533 119.613c17.913 11.278 26.206 38.48 28.861 66.014.331 2.655.663 4.977.995 7.63.331 2.322.663 3.98.993 4.977 0 .332 0 .995.332 1.326 19.573-53.408 89.567-109.803 92.222-114.116 1.326-1.99-1.66-10.615 2.985-18.907 5.974-10.619 17.586-15.264.998-8.296zM198.91 308.7c15.259-30.519 15.591-59.713 15.259-93.881 0-14.265 10.283-34.501 4.977-28.861-19.905 22.224-69.996 64.025-106.155 66.346 50.755-1.659 70.658 23.885 85.919 56.396z"/><path fill="#010101" d="M-28.66 147.808c18.909-13.601 116.77-65.681 140.324-72.981 23.552-7.63 16.254-16.588 16.254-16.588S32.378 99.374-24.68 134.87"/><path opacity=".4" fill="#010101" d="M249.995 51.938c-7.63-2.985-13.601 5.972-11.611 14.598 1.992 8.625 19.905 18.244 18.909 49.76-.663 25.876-6.303 36.49-6.303 36.49l-12.606-15.922s-1.99-35.828-6.303-41.136C227.77 90.42 214.168 80.8 208.86 75.824c-5.308-4.977 5.971-11.611 5.308-20.9-.663-8.956 5.64-26.869 5.64-26.869l30.187 23.883zm46.112 141.317c-.663 24.879 4.977 61.703 7.298 79.286 2.322 17.581 5.308 18.909 0 26.871-5.308 7.63-12.273 20.236-12.273 20.236l-22.891-1.992s18.246-23.221 19.239-27.534c.995-4.311-9.288-37.153-9.288-37.153l17.915-59.714zm-44.12-232.212c4.645 10.282 10.283 14.927 19.239 17.913 5.308 1.99 26.206 4.645 34.501-4.645 3.648-4.313 1.326-15.923 1.326-15.923l-18.909 15.259-25.544-4.643-2.985-7.63-7.628-.331z"/><path fill="#8AC640" stroke="#010101" stroke-width="1.586" stroke-linejoin="round" stroke-miterlimit="10" d="M253.976-16.068c8.625 5.64 30.188 10.948 36.159 11.943 5.971 1.326 15.591-6.303 20.236-8.293 4.977-2.322 13.602-3.65 23.553 5.308.995.995-2.322 5.308-2.322 5.308-.332-.332-2.322-.332-4.977-1.66-2.653-1.326-4.975-2.322-8.956-1.99-16.588 1.99-19.241 7.63-33.837 4.311-14.596-3.319-18.246-5.971-32.509-5.308"/><path fill="#8AC640" d="M250.991-15.072c10.948 4.645 32.179 9.62 38.149 10.948 5.971 1.327 15.591-4.645 20.236-7.63 8.295-5.308 18.909-.995 23.886 4.645 3.316 3.648 4.645 5.971 4.645 6.966 0 1.326-3.98 0-3.98 0-2.322-.995-4.977-1.326-6.966-2.655-2.655-1.326-5.309-3.316-9.288-2.985-16.588 1.992-19.905 7.63-34.169 4.313s-17.913-6.303-33.172-5.309"/><path fill="#010101" d="M199.573 294.765c-.663-.663.663-1.326 0-1.326-4.311 0-10.283-3.318-13.602-7.962-14.264-20.566-35.164-34.167-72.981-33.172-56.727 1.326-79.286-21.894-83.597-66.346-2.322-24.216-8.958-47.77-22.558-61.04l-7.962 4.977c15.259 13.269 20.236 34.832 23.553 64.356 5.308 44.452 41.135 65.02 82.934 65.683 43.457.663 59.048 9.62 75.302 31.516 5.308 6.966 11.28 9.288 15.923 10.283l2.988-6.969z"/><path opacity=".4" fill="#010101" d="M353.497 81.462c.995 4.975 3.648 14.596 8.956 19.239 2.324 2.322 2.655 2.985.664 2.985-1.992 0-16.588-.663-16.588-.663l-3.98-6.966 10.948-14.595z"/></svg>