<svg xmlns="http://www.w3.org/2000/svg" width="112.574" height="250" viewBox="193.713 532.914 112.574 250"><path fill="#D34A47" d="M280.566 775.378l2.399-39.968 6.623-11.306s-15.074 6.167-40.31 6.167c-25.237 0-40.083-6.053-40.083-6.053l7.422 12.333 2.625 38.826c0 4.163 13.727 7.536 30.661 7.536 16.935.002 30.663-3.373 30.663-7.535m-7.567-186.644l5.034-19.9 27.88-29.337-7.348-6.259-29.517 31.251-5.845 23.775c-4.4-.147-8.801-.221-13.203-.22-31.087 0-56.287 3.543-56.287 7.913s25.202 7.913 56.287 7.913 56.287-3.543 56.287-7.913c.001-3.218-13.667-5.987-33.288-7.223"/><path fill="#FFF" d="M270.071 599.878s-1.091.244-4.298.258c-3.208.013-5.486-.021-6.394-.848-.244-.222-.378-.663-.376-.96.002-.568.405-.903.919-1.112l.485.762c-.211.073-.332.159-.333.251-.002.431 3.28.727 5.79.695 2.51-.032 5.545-.237 5.548-.663 0-.129-.229-.25-.628-.345l.483-.757c.65.202 1.218.592 1.217 1.268-.004 1.148-1.465 1.323-2.413 1.451"/><path fill="#D34A47" d="M305.859 539.555c.702-.809-.363-2.88-2.376-4.625-2.015-1.743-4.215-2.501-4.917-1.691-.702.809.362 2.88 2.377 4.625 2.013 1.743 4.216 2.501 4.916 1.691m-26.634 138.198c-.661-6.358 13.905-15.565 10.167-15.859-8.048.46-12.053 9.43-16.102 18.826-1.484 3.443-6.561 18.127-9.891 16.319-3.328-1.807 4.316-13.881 6.459-21.052-2.472 1.813-11.54 8.858-13.876 2.26-3.757 3.191-11.784 4.919-10.879-3.462-1.999 3.54-6.485 8.483-11.868 6.429-7.07-2.696 4.098-25.22 6.874-24.084 2.778 1.136-.561 6.267-1.434 8.26-1.922 4.385-4.144 9.897-2.66 11.026 2.542 1.933 9.459-7.313 9.612-7.517 1.294-1.71 4.979-12.891 7.95-11.607 2.971 1.284-7.409 16.047-3.528 18.977.782.591 3.985-.364 5.934-2.472 1.26-1.364.827-4.383 5.029-14.404 4.202-10.02 7.947-22.499 10.828-21.548 2.882.95.507 7.355-.528 9.743-4.851 11.205-13.24 29.719-9.284 28.317 3.956-1.4 6.016-1.483 9.89-6.017 3.874-4.533 3.696-12.001 6.278-11.842 2.583.159 2.15 2.553 1.523 4.376 2.541-2.908 12.046-9.033 14.341-2.967 2.718 7.182-13.6 17.556-9.531 17.026 3.967-.515 10.393-4.586 13.137-8.287l7.553-67.899s-7.6 6.29-55.949 6.29-55.163-6.159-55.163-6.159l6.43 61.976c3.413-9.7 11.518-29.32 24.293-28.662 5.812.299 13.569 11.49 6.924 11.868-2.812.16-3.098-5.585-6.429-6.429-2.404-.608-5.749 1.345-7.913 3.462-4.313 4.221-13.589 20.874-12.363 29.177 1.562 10.585 14.606-3.678 16.814-7.913 1.554-2.982 2.604-11.82 6.004-10.893 3.4.927-.296 10.048-2.761 18.112-2.768 9.054-4.224 18.606-7.694 17.507-3.47-1.098 2.183-12.787 1.978-14.836-3.262 3.01-9.271 10.628-16.959 6.858l3.993 38.486s10.613 8.386 42.584 8.386 42.977-8.254 42.977-8.254l4.959-44.576c-4.057 3.95-16.897 10.965-17.719 3.058"/></svg>