<svg xmlns="http://www.w3.org/2000/svg" width="500" height="1110.373" viewBox="0 102.728 500 1110.373"><path fill="#D34A47" d="M385.757 1179.629l10.653-177.517 29.416-50.215s-66.951 27.389-179.038 27.389c-112.089 0-178.025-26.882-178.025-26.882l32.967 54.776 11.663 172.448c0 18.487 60.97 33.473 136.183 33.473 75.21.002 136.181-14.984 136.181-33.472m-33.605-828.978l22.361-88.386 123.831-130.298-32.638-27.798-131.099 138.8-25.963 105.597c-19.54-.655-39.09-.98-58.642-.976C111.931 347.591 0 363.327 0 382.733c0 19.408 111.93 35.143 250.002 35.143 138.07 0 249.998-15.734 249.998-35.143 0-14.291-60.705-26.592-147.848-32.082"/><path fill="#FFF" d="M339.146 400.149s-4.843 1.086-19.089 1.146c-14.249.059-24.367-.092-28.397-3.763-1.084-.986-1.677-2.942-1.671-4.268.012-2.522 1.802-4.008 4.083-4.939l2.157 3.384c-.939.324-1.474.707-1.476 1.115-.008 1.916 14.569 3.227 25.719 3.086 11.152-.138 24.626-1.056 24.638-2.945 0-.571-1.019-1.109-2.791-1.533l2.147-3.36c2.89.897 5.412 2.631 5.406 5.63-.026 5.1-6.516 5.876-10.726 6.447"/><path fill="#D34A47" d="M498.1 132.224c3.114-3.596-1.612-12.795-10.553-20.543-8.946-7.744-18.721-11.109-21.84-7.512-3.116 3.596 1.611 12.795 10.557 20.539 8.941 7.746 18.721 11.115 21.836 7.516M379.802 746.027c-2.935-28.236 61.761-69.13 45.158-70.44-35.743 2.043-53.532 41.887-71.515 83.617-6.59 15.294-29.139 80.51-43.929 72.481-14.786-8.025 19.169-61.653 28.686-93.502-10.981 8.052-51.253 39.341-61.632 10.039-16.686 14.171-52.34 21.849-48.318-15.376-8.877 15.724-28.799 37.677-52.713 28.554-31.405-11.976 18.198-112.014 30.531-106.968 12.336 5.045-2.489 27.834-6.372 36.683-8.539 19.475-18.404 43.958-11.814 48.969 11.289 8.586 42.01-32.482 42.694-33.385 5.746-7.591 22.116-57.254 35.309-51.551 13.193 5.703-32.908 71.273-15.671 84.287 3.476 2.626 17.701-1.619 26.354-10.981 5.598-6.056 3.673-19.469 22.335-63.975 18.662-44.504 35.295-99.928 48.094-95.705 12.799 4.22 2.25 32.667-2.342 43.271-21.546 49.77-58.804 131.996-41.233 125.771 17.571-6.222 26.72-6.588 43.926-26.723 17.206-20.135 16.413-53.301 27.881-52.595 11.472.707 9.547 11.341 6.765 19.438 11.288-12.917 53.504-40.121 63.696-13.178 12.072 31.897-60.401 77.972-42.331 75.621 17.618-2.291 46.161-20.369 58.347-36.805l33.544-301.573s-33.755 27.934-248.498 27.934c-214.746 0-245.008-27.353-245.008-27.353l28.559 275.264c15.158-43.082 51.155-130.225 107.894-127.301 25.81 1.331 60.265 51.029 30.751 52.713-12.493.71-13.761-24.807-28.554-28.554-10.675-2.705-25.537 5.973-35.143 15.376-19.156 18.747-60.353 92.712-54.91 129.588 6.935 47.012 64.874-16.337 74.678-35.144 6.904-13.248 11.568-52.501 26.668-48.382 15.102 4.118-1.317 44.627-12.263 80.443-12.296 40.216-18.76 82.64-34.173 77.76-15.413-4.876 9.694-56.794 8.785-65.891-14.488 13.367-41.177 47.205-75.322 30.457l17.736 170.937s47.138 37.244 189.138 37.244 190.883-36.663 190.883-36.663l22.024-197.986c-18.018 17.547-75.044 48.704-78.695 13.584"/></svg>