<svg xmlns="http://www.w3.org/2000/svg" width="277.137" height="290.164" viewBox="0 0 277.137 290.164"><path fill="#D5BC82" d="M205.098 234.197c-38.378 0-71.9-20.771-89.951-51.682 9.772-4.63 20.379-10.718 23.501-14.293-13.466-14.554-32.28-25.071-37.451-44.444.038-.637.077-1.274.126-1.908.08-.012.157-.031.24-.039l-.204-.358C105.744 68.017 150.512 26 205.098 26c9.747 0 19.179 1.343 28.126 3.848C208.791 11.131 178.239 0 145.082 0 64.955 0 0 64.955 0 145.082s64.955 145.082 145.082 145.082c58.666 0 109.195-34.823 132.055-84.924-18.701 17.934-44.082 28.957-72.039 28.957z"/><path fill="#FFF" d="M34.899 122.986l.249-.48c.145-.323.428-.755.822-1.296.415-.518.952-1.121 1.636-1.748.34-.314.729-.616 1.126-.954.418-.307.861-.628 1.335-.943a32.13 32.13 0 0 1 3.189-1.825 36.066 36.066 0 0 1 3.753-1.648 54.936 54.936 0 0 1 8.575-2.372c1.497-.243 2.999-.463 4.49-.571a42.86 42.86 0 0 1 4.385-.146c1.425.039 2.803.146 4.093.379 1.293.202 2.496.519 3.582.875 1.079.382 2.043.813 2.827 1.317.397.244.765.472 1.069.739.312.253.613.466.832.72l.613.638.381.531.315.439-.358-.406-.426-.484-.655-.575c-.231-.23-.543-.417-.864-.64-.313-.236-.689-.431-1.09-.638-.794-.427-1.758-.772-2.814-1.105-4.283-1.236-10.36-1.195-16.203-.092a53.915 53.915 0 0 0-8.457 2.203c-1.305.492-2.576.952-3.737 1.49a31.593 31.593 0 0 0-3.204 1.645 26.35 26.35 0 0 0-2.519 1.704 15.524 15.524 0 0 0-1.726 1.589c-.413.497-.752.89-.925 1.2-.191.297-.294.454-.294.454zm11.732 10.612c.131-.383.244-.772.389-1.149.185-.359.332-.748.554-1.09.435-.688.944-1.342 1.563-1.882l.458-.412.5-.359c.325-.254.685-.452 1.042-.655a13.607 13.607 0 0 1 2.252-.992c1.559-.52 3.185-.802 4.814-.944a25.73 25.73 0 0 1 2.451-.106c.818-.01 1.635.029 2.451.079.816.055 1.628.141 2.44.243a42.9 42.9 0 0 1 4.802.977c.792.204 1.574.444 2.352.699 1.553.517 3.079 1.129 4.544 1.889.729.387 1.45.794 2.134 1.272.696.456 1.338 1.012 1.94 1.617l.519.522-.708.286-2.176.878c-.727.287-1.435.638-2.154.954-1.44.638-2.852 1.348-4.324 1.962a25.8 25.8 0 0 1-2.218.894c-.754.266-1.492.577-2.28.752-.782.179-1.54.467-2.342.555l-2.388.319-2.405.023c-.805.033-1.588-.057-2.386-.112a41.043 41.043 0 0 1-2.37-.281 26.1 26.1 0 0 1-2.348-.445 18.027 18.027 0 0 1-2.292-.689 12.325 12.325 0 0 1-2.166-1.026c-.34-.21-.66-.457-.975-.702-.275-.293-.608-.53-.817-.88-.527-.619-.733-1.427-.856-2.197.173.765.423 1.535.974 2.104.217.326.554.543.83.813.318.223.638.447.977.635.688.365 1.407.672 2.155.899.742.242 1.504.425 2.273.568a35.03 35.03 0 0 0 4.661.575c.778.032 1.573.099 2.347.043l2.332-.088 2.299-.375c.768-.107 1.504-.384 2.257-.567.757-.174 1.477-.486 2.209-.752.735-.256 1.453-.57 2.167-.897 1.439-.616 2.846-1.339 4.288-1.995.724-.326 1.43-.684 2.169-.985l2.21-.916-.189.807c-.543-.535-1.116-1.059-1.772-1.494-.637-.455-1.324-.852-2.019-1.229-1.401-.744-2.88-1.355-4.391-1.873-3.025-1.034-6.182-1.69-9.365-2.013a32.496 32.496 0 0 0-2.395-.145c-.799-.028-1.6-.013-2.397.036-1.594.092-3.184.326-4.711.782-.763.226-1.515.499-2.225.858-.355.181-.714.356-1.038.587l-.501.326-.462.378c-.626.495-1.149 1.109-1.61 1.763-.239.322-.403.689-.611 1.035-.17.365-.307.747-.462 1.12z"/><path fill="#FFF" d="M80.464 132.432l-.165-.488a3.055 3.055 0 0 0-.238-.568c-.104-.217-.219-.466-.39-.727-.299-.543-.776-1.133-1.34-1.781a24.89 24.89 0 0 0-2.116-1.975 29.056 29.056 0 0 0-2.78-2.005 37.13 37.13 0 0 0-3.311-1.876 19.619 19.619 0 0 0-3.797-1.401c-1.337-.311-2.722-.548-4.12-.556-.697-.061-1.396.007-2.092.009-.679.092-1.414.091-2.039.262-.723.117-1.302.357-1.9.592l-.87.456c-.28.168-.544.362-.814.539-1.046.769-1.999 1.634-2.907 2.464-.463.424-.9.803-1.319 1.206-.424.396-.838.776-1.167 1.171a7.893 7.893 0 0 0-1.54 2.376c-.34.787-.548 1.525-.756 2.116a38.591 38.591 0 0 1-.673 1.854l.486-1.909c.161-.605.308-1.352.595-2.194.119-.428.34-.857.555-1.313.266-.427.54-.886.909-1.3.342-.447.735-.842 1.137-1.257.397-.42.843-.848 1.268-1.276.867-.871 1.788-1.815 2.903-2.64.287-.196.567-.407.868-.594l.946-.515c.679-.288 1.404-.57 2.077-.687 1.451-.306 2.893-.403 4.368-.358 1.469.033 2.922.304 4.32.653 1.385.367 2.755.924 3.931 1.519 1.245.625 2.325 1.341 3.349 2.058a29.482 29.482 0 0 1 2.741 2.184 18.34 18.34 0 0 1 2.032 2.16c.527.711.964 1.348 1.227 1.928.153.277.251.546.331.779.091.23.15.427.178.594l.113.5z"/><path fill="none" stroke="#FFF" stroke-miterlimit="10" d="M61.131 126.432c-6.436-.881-6.958 10.916-.341 12.008 4.284.707 4.646-3.647 4.008-7.008-.703-3.703-3.036-3.353-5.667-5m32.667 94.14c8.414-.022 16.308-2.616 22.419-7.345 5.183-4.01 9.501-10.489 17.562-10.068 6.639 6.895-7.665 12.366-13.601 14.707-4.005 1.579-7.129 1.952-11.813 2.335-3.875.316-9.873-.389-13.277.744 8.572 3.081 22.195 3.843 32.396 2.622 4.855-.581 9.561-2.481 11.383-6.341 1.387-2.94 2.254-10.414-4.097-9.669"/><path fill="#FFF" d="M115.798 182.013c-.811.286-1.561.629-2.367.95-.406.147-.825.272-1.26.372l-.67.09-.688.006-.25.002-.086-.263c-.188-.576-.442-1.134-.531-1.748-.048-.304-.147-.601-.145-.913l-.034-.931.089-.931c.05-.307.14-.605.209-.908.181-.591.402-1.165.681-1.703.544-1.081 1.245-2.03 1.787-3.019.124-.25.278-.496.362-.758l.157-.39.097-.404c.092-.272.061-.552.085-.839-.01-.283-.07-.566-.104-.863.099.271.249.542.307.837.033.296.121.602.08.906l-.023.463-.098.448c-.057.307-.18.581-.278.871-.449 1.128-1.072 2.121-1.527 3.153a11.318 11.318 0 0 0-.577 1.562c-.056.268-.126.533-.173.801l-.094.812.015.82c-.006.274.069.545.095.82.028.275.076.549.163.816l.214.814-.335-.26.581.052.594-.021c.401-.037.807-.099 1.215-.187l1.242-.264a9.624 9.624 0 0 1 1.267-.193zm-24.417 30.835s.229.921.441 2.308c.22 1.382.427 3.253.554 5.124-.004.485-.023.935-.041 1.399-.019.463-.064.914-.069 1.328-.018.215-.003.413.009.603.016.19-.004.393.056.558l.123.509.216.444c.121.302.367.507.514.739.153.232.361.374.495.525l.452.462-.574-.304c-.173-.114-.425-.198-.637-.406-.211-.205-.524-.372-.727-.697l-.349-.487c-.087-.186-.156-.391-.237-.599-.097-.209-.105-.427-.152-.651a3.502 3.502 0 0 1-.071-.678c-.02-.46-.034-.911-.016-1.363l.007-1.379a60.726 60.726 0 0 1-.125-5.097c.026-1.4.131-2.338.131-2.338z"/></svg>