<svg xmlns="http://www.w3.org/2000/svg" width="138.5" height="196.723" viewBox="80.38 53.694 138.5 196.723"><path fill="#EFEFEF" d="M150.002 68.68L115.28 92.15h69.44z"/><path fill="#8C8C8C" d="M150.003 72.822l-24.091 16.284h48.18zM80.38 237.667h138.5v12.75H80.38z"/><path fill="none" d="M192 129.333V104h-85v127.667h85V212z"/><path fill="#EFEFEF" d="M208 231.667V212h-5.333v-82.667H208V92.667H91v36.667h5.333V212H91v19.667h-6.667v6H214v-6h-6zm-101 0V104h85v127.667h-85z"/><path fill="none" d="M184.72 92.15L150 69.099 115.28 92.15zm3.873-.85l-38.591-25.623.003.004z"/><path fill="#EFEFEF" d="M111.037 82.629l38.588-25.619.003-.004.002.001.002-.001.002.004 38.589 25.619h20.902v1.038h3.135v-3h-22.004l-40.621-26.969-.003-.004-.002.001-.002-.001-.003.004-40.621 26.969H87v3h3.134v-1.038z"/><path fill="#8C8C8C" d="M149.63 60.428l37.995 25.051h21.5v-2.85h-20.902L149.634 57.01l-.002-.004-.002.001-.002-.001-.003.004-38.588 25.619H90.134v2.85h2.616l19.042-.062z"/><path fill="#8C8C8C" d="M150.005 65.681l-.003-.004L111.407 91.3H90.504v2.85H94.5v2.1h110.375v-2.1h4.621V91.3h-20.903l-38.588-25.619zM184.72 92.15h-69.44L150 69.099l34.72 23.051z"/><path fill="#EFEFEF" d="M187.625 85.479L149.63 60.428l-37.838 24.989-19.042.062L95.625 88l-5.121 3.3h20.903l38.595-25.623L188.593 91.3h20.903l-5.204-3.175 1.625-2.646z"/></svg>