<svg xmlns="http://www.w3.org/2000/svg" width="42.5" height="127.667" viewBox="0 0 42.5 127.667"><defs><filter id="a" x="-50%" y="-50%" width="200%" height="200%"><feComponentTransfer in="SourceAlpha"><feFuncA type="table" tableValues="1 0"/></feComponentTransfer><feGaussianBlur stdDeviation="3"/><feOffset dx="5" dy="5" result="offsetblur"/><feFlood result="color"/><feComposite in2="offsetblur" operator="in"/><feComposite in2="SourceAlpha" operator="in"/><feMerge><feMergeNode in="SourceGraphic"/><feMergeNode/></feMerge></filter></defs><path fill="#A1A1A1" d="M0 0v127.667h42.5V0H0zm35 120H8.28V61.167H35V120zm0-66.25H8.28V7.5H35v46.25z"/><path filter="url(#a)" opacity=".7" fill="#EFEFEF" d="M8.28 7.583H35v46.25H8.28zm0 53.667H35v58.833H8.28z"/><path fill="none" d="M77.72-11.85L43-34.901 8.28-11.85zm3.873-.85L43.002-38.323l.003.004z"/><path fill="#EFEFEF" d="M4.037-21.371L42.625-46.99l.003-.004.002.001.002-.001.002.004 38.589 25.619h20.902v1.038h3.135v-3H83.256L42.635-50.302l-.003-.004-.002.001-.002-.001-.003.004L2.004-23.333H-20v3h3.134v-1.038z"/><path fill="#A1A1A1" d="M42.63-43.572l37.995 25.051h21.5v-2.85H81.223L42.634-46.99l-.002-.004-.002.001-.002-.001-.003.004L4.037-21.371h-20.903v2.85h2.616l19.042-.062z"/><path fill="#A1A1A1" d="M43.005-38.319l-.003-.004L4.407-12.7h-20.903v2.85h3.996v2.1H97.875v-2.1h4.621v-2.85H81.593L43.005-38.319zM77.72-11.85H8.28L43-34.901 77.72-11.85z"/><path fill="#EFEFEF" d="M80.625-18.521L42.63-43.572 4.792-18.583l-19.042.062L-11.375-16l-5.121 3.3H4.407l38.595-25.623L81.593-12.7h20.903l-5.204-3.175 1.625-2.646z"/></svg>